<svg id="Capa_1" data-name="Capa 1" xmlns="http://www.w3.org/2000/svg" viewBox="0 0 408.82 305.88"><defs><style>.cls-1{fill:none;stroke:#808181;stroke-width:2px;}.cls-2{fill:#fff;}.cls-3{fill:#010102;}</style></defs><path class="cls-1" d="M37.54,230.39a6,6,0,0,0-2.32,2.24q-13.71,24.45-28,49.8a4.54,4.54,0,0,0-.59,2.13,76.81,76.81,0,0,0,0,7.92c.35,3.4,6,3.86,8.56,3.86q360.83.21,375.06.15a9.09,9.09,0,0,0,5.63-1.72c.84-.65,1.26-1.84,1.25-3.58,0-2.59,0-4.22-.06-4.88a12.07,12.07,0,0,0-1.08-4.57q-11-24.62-22.06-49.19a4.34,4.34,0,0,0-2.36-2.07.62.62,0,0,1-.41-.82,11.06,11.06,0,0,0,.45-2.23v-205c0-5.28-.44-9.31-4.91-11.94Q364,8.91,357.77,8.9H50.32A21.64,21.64,0,0,0,44,9.57a9.39,9.39,0,0,0-5.2,4.22c-1,1.71-1.5,4.58-1.5,8.63q0,102.73,0,205.49l.21,1a2,2,0,0,0,.28.69.52.52,0,0,1-.21.8"/><path class="cls-1" d="M73,226H335a1.09,1.09,0,0,1,1.09,1.1v2.47a.62.62,0,0,0,.71.69q11.87,0,29.43,0a7.32,7.32,0,0,0,2.1-.21,2.25,2.25,0,0,0,1.56-2.14q0-149,0-208.81c0-3.52-1.38-6-4.13-7.4q-2.24-1.15-7.52-1.16-154.89,0-309.76,0c-3.75,0-6.45,1.27-8.1,3.79q-1.49,2.3-1.49,7.83,0,102.82,0,205.67A2.07,2.07,0,0,0,41,229.88H70.89a.67.67,0,0,0,.72-.59l.49-2.59A.82.82,0,0,1,73,226"/><path class="cls-1" d="M334.81,227.94a.33.33,0,0,0-.33-.33H73.55a.33.33,0,0,0-.33.33h0v3.75a.33.33,0,0,0,.33.33H334.48a.33.33,0,0,0,.33-.33v-3.75"/><path class="cls-1" d="M176.1,288.32c-.12,4.21,2.92,3.89,6.34,3.89q20.69,0,41.36,0a5.75,5.75,0,0,0,3.08-.59,3.15,3.15,0,0,0,1.32-3.25.65.65,0,0,1,.57-.72h.08l162.34,0a5.49,5.49,0,0,0,3.32-.84,2,2,0,0,0,.71-2.69l-22.8-50.91a2.23,2.23,0,0,0-2-1.3l-32.79-.06a.67.67,0,0,0-.76.76v.51a.64.64,0,0,1-.73.73q-133.33-.27-263.25-.41a2.72,2.72,0,0,1-1.2-.15,1.54,1.54,0,0,1-.61-1.17.65.65,0,0,0-.65-.61H39.3a2.73,2.73,0,0,0-2.36,1.38L8.44,283.6a2.74,2.74,0,0,0,.82,3.52,4.11,4.11,0,0,0,2.37.53q144.2.09,163.87.05a.6.6,0,0,1,.6.61h0"/><path class="cls-1" d="M174.6,290a.75.75,0,0,0-.79-.62H10.86a6.75,6.75,0,0,1-2.17-.77c-.35-.16-.52-.05-.52.34v3a2,2,0,0,0,1.56,1.95,34.31,34.31,0,0,0,7.06.92H390.36a7.43,7.43,0,0,0,4.56-1.5,1.09,1.09,0,0,0,.47-.88l.06-3.49c0-.55-.22-.69-.7-.43a6.05,6.05,0,0,1-2.91.83H230.68a.67.67,0,0,0-.69.52q-1.34,4.07-6.47,4.08-10.77,0-42.76-.05c-3.21,0-5.33-.72-6.16-3.9"/><path class="cls-1" d="M359.62,24.1a.88.88,0,0,0-.88-.88H50.43a.89.89,0,0,0-.88.88V217.39a.88.88,0,0,0,.88.88H358.74a.87.87,0,0,0,.88-.88V24.1"/><path class="cls-1" d="M357.93,25.29a.5.5,0,0,0-.5-.49H51.72a.49.49,0,0,0-.49.49h0v190.8a.5.5,0,0,0,.49.5H357.43a.51.51,0,0,0,.5-.5V25.29"/><path class="cls-1" d="M241.77,261l.18.41a.62.62,0,0,0,.61.39l21.34,0a.63.63,0,0,0,.71-.7l.06-2.76c0-.21.11-.29.31-.26l.37.08a.19.19,0,0,1,.15.17l.41,2.82a.6.6,0,0,0,.68.56l16.64-.23a.8.8,0,0,0,.77-.6,17.16,17.16,0,0,0,.32-2.1.84.84,0,0,1,.74-.74c.46-.12.61.05.45.5a4.34,4.34,0,0,0-.16,2.67.74.74,0,0,0,.71.54H302a1.49,1.49,0,0,0,1.42-1.94l-.3-.93a.26.26,0,0,1,.18-.37l.4-.12a.26.26,0,0,1,.33.16v0l.79,2.48a.75.75,0,0,0,.78.57l15.4,0a1.57,1.57,0,0,0,1.57-1.57V260l-.07-1.35a.48.48,0,0,1,.21-.41.85.85,0,0,1,.39-.17.45.45,0,0,1,.51.3,1.71,1.71,0,0,1,0,1.49,1,1,0,0,0,.35,1.37,1.07,1.07,0,0,0,.52.14H344.9a1.34,1.34,0,0,0,1.33-1.34,1.47,1.47,0,0,0,0-.36q-3.17-11.7-7.31-23a2.44,2.44,0,0,0-2.27-1.59L70.33,234.6a1.44,1.44,0,0,0-1.34.91l-9,23.3a1.56,1.56,0,0,0,.9,2,1.62,1.62,0,0,0,.53.11l38.6.81a.79.79,0,0,0,.81-.65l.63-3.3a.53.53,0,0,1,.38-.4l.64-.21c.27-.09.39,0,.34.29l-.59,3a1,1,0,0,0,.82,1.21l.18,0q8.06.18,14.71.17,2.52,0,3.06-.87c.19-.32.36-.31.5,0l.17.34a.65.65,0,0,0,.63.43l20.61.43a.92.92,0,0,0,.58-.17,3.42,3.42,0,0,0,1.34-3.08c0-.33.16-.47.48-.41l.38.08a.25.25,0,0,1,.21.29h0l-.38,2a1,1,0,0,0,.78,1.14h.18q50.35-.14,91.35-.2a20.56,20.56,0,0,0,2.78-.2.65.65,0,0,0,.45-.37.94.94,0,0,0,.1-.28c.15-.63.36-.65.62-.07"/><path class="cls-1" d="M150.33,264.25a2.51,2.51,0,0,0-2.46,2l-3,15.46a2.48,2.48,0,0,0,2.46,3l108.9,0a2.49,2.49,0,0,0,2.49-2.51v-.11L258,266.65a2.51,2.51,0,0,0-2.5-2.39H150.33"/><path class="cls-1" d="M99.69,250.46a.55.55,0,0,1-.54.54H69.81c-1.36,0-1.8-.64-1.31-1.92l1-2.46A2.34,2.34,0,0,1,71.89,245l22.25.48a.54.54,0,0,0,.54-.44l.41-2.15c0-.26,0-.39-.32-.4l-4.42-.1a.72.72,0,0,1-.71-.75.66.66,0,0,1,.12-.38,4,4,0,0,0,.5-1.21.47.47,0,0,0-.35-.57h-.53a.61.61,0,0,0-.5.26,3.88,3.88,0,0,0-.56,2,.69.69,0,0,1-.69.67H72.71a.92.92,0,0,1-.92-.91,1,1,0,0,1,.06-.34l1.56-4a.53.53,0,0,0-.31-.69.54.54,0,0,0-.22,0l-1.66.09a1.23,1.23,0,0,0-1.18.84l-8.13,21c-.31.8,0,1.18.83,1.14l.5,0a1.12,1.12,0,0,0,1.06-.77l1.67-4.3a1.73,1.73,0,0,1,1.64-1.11q18.75.22,37,1.08a1.11,1.11,0,0,0,1.19-.77l.65-1.69c.18-.45,0-.67-.46-.68l-4.1-.09a.65.65,0,0,1-.66-.5l-.54-1.67a.33.33,0,0,0-.42-.22.4.4,0,0,0-.2.16,3.45,3.45,0,0,0-.35,1.61"/><path class="cls-1" d="M291.66,238.77a.85.85,0,0,1,1,1v2.31a.57.57,0,0,0,.57.57h13.62c.45,0,.66-.22.64-.68l-.1-2.14a.83.83,0,0,1,.77-.87h2c.67,0,.95.34.82,1l-.33,1.77c-.12.59.13.88.73.88h23a2.11,2.11,0,0,1,2.2,1.62l.54,1.69c.31,1,0,1.42-1,1.42h-9a.46.46,0,0,0-.52.54l.1,2a.53.53,0,0,0,.63.56l9.34-.45a2.86,2.86,0,0,1,3.16,2.19l.6,1.85c.45,1.43-.07,2.14-1.57,2.14l-39.19-.09a.63.63,0,0,1-.66-.49c-.12-.45-.21-.78-.28-1-.53-1.31-.91-1.3-1.16,0l-.15.76a.69.69,0,0,1-.71.63l-9.34.45c-.19,0-.27.11-.23.3a6.31,6.31,0,0,1-.18,3.1c-.06.19,0,.28.22.28h13.75a.65.65,0,0,0,.72-.64,3.59,3.59,0,0,0-.17-1.21c-.26-1,.1-1.44,1.1-1.44h2.67a.61.61,0,0,1,.62.61.77.77,0,0,1,0,.15,2.73,2.73,0,0,0,.06,1.76,1,1,0,0,0,1,.64l13.32,0c.41,0,.62-.18.62-.58v-1.62a.85.85,0,0,1,.75-.92l2.63-.53a1.66,1.66,0,0,1,.27,0c1.05.14,1.33,1.08.83,2.82a.42.42,0,0,0,.29.53l.12,0h18.23a.55.55,0,0,0,.53-.73L337.7,237.9a1.62,1.62,0,0,0-1.53-1.13l-260.28-.55a.65.65,0,0,0-.67.45l-1.32,3.39a.49.49,0,0,0,.28.61.45.45,0,0,0,.16,0h11.9A.74.74,0,0,0,87,240l.25-1.23a.79.79,0,0,1,.7-.7,11.47,11.47,0,0,1,3.72-.17.79.79,0,0,1,.63.91,1,1,0,0,1-.17.36,1.32,1.32,0,0,0-.33,1.09.6.6,0,0,0,.66.57l12.12,0a.61.61,0,0,0,.69-.68v-1.13a.65.65,0,0,1,.55-.69,10,10,0,0,1,4.08-.19q.66.12.42.75l-.64,1.68c-.18.43,0,.65.44.66l13.11,0a.54.54,0,0,0,.61-.58,5.54,5.54,0,0,1,.43-1.89.83.83,0,0,1,.84-.55h2.44a.6.6,0,0,1,.67.68v1.81a.51.51,0,0,0,.57.59l12.89,0a.59.59,0,0,0,.64-.53l.3-1.58a1.05,1.05,0,0,1,1.14-.95h1.78a.87.87,0,0,1,.87.88h0v1.59a.68.68,0,0,0,.67.69l12.73,0a.5.5,0,0,0,.57-.56v-1.6a.78.78,0,0,1,.66-.84,7.24,7.24,0,0,1,2.92-.14.91.91,0,0,1,.82.93l.08,1.71a.51.51,0,0,0,.58.55l12.75,0c.45,0,.6-.22.46-.64l-.12-.38c-.35-1.11.05-1.76,1.2-1.94,2.68-.41,3.76.3,3.26,2.13-.2.71.07,1.07.8,1.07h12.34c.37,0,.54-.19.49-.56-.27-2.16,1-3,3.83-2.55a1.29,1.29,0,0,1,1,1.47,1.82,1.82,0,0,1-.07.25l-.23.61c-.24.6,0,.9.61.9l13,0c.4,0,.58-.18.56-.58l-.09-1.8a.63.63,0,0,1,.52-.7,6.36,6.36,0,0,1,3.24,0,.87.87,0,0,1,.64.84v1.84a.44.44,0,0,0,.43.44q6.1.27,12.73.22c.83,0,1.12-.76.88-2.28a.84.84,0,0,1,.52-.9,4.34,4.34,0,0,1,3.12-.13.67.67,0,0,1,.5.69v2.26c0,.33.16.5.48.5l13.2,0c.38,0,.56-.19.54-.56L252,240a.83.83,0,0,1,.51-.82,5.13,5.13,0,0,1,3.37-.29.59.59,0,0,1,.49.74,5.16,5.16,0,0,0-.1,2.27.75.75,0,0,0,.78.57l12.29,0c1,0,1.31-.46.85-1.38-.7-1.4.06-2.25,2.26-2.56a1.69,1.69,0,0,1,1.91,1.44,2.1,2.1,0,0,1,0,.56l-.2,1.07a.7.7,0,0,0,.57.83l.1,0q7.55.21,13.16,0c.48,0,.57-.9.28-2.62a.87.87,0,0,1,.71-1h2.69"/><path class="cls-1" d="M107,241.48c.33.17.81-.12,1.06-.63s.2-1.06-.14-1.23-.8.12-1.06.63-.19,1.06.14,1.23"/><path class="cls-1" d="M124.35,243h-8.93c-.35,0-.48.17-.37.5l.72,2.25a.27.27,0,0,0,.28.2h15a.82.82,0,0,0,.84-.57l.66-1.72c.17-.41,0-.62-.39-.62h-4.93a.81.81,0,0,1-.81-.55,3.05,3.05,0,0,1,.16-2.25c.09-.23,0-.34-.23-.33l-.5,0a.27.27,0,0,0-.28.24l-.4,2.12a.81.81,0,0,1-.87.72"/><path class="cls-1" d="M163.81,243.14a.26.26,0,0,1-.26-.24l-.31-2.74a.28.28,0,0,0-.23-.25l-.49-.09a.29.29,0,0,0-.32.23v0l-.28,2.73a.28.28,0,0,1-.27.25l-6.63.15a.27.27,0,0,0-.27.28.19.19,0,0,0,0,.08l.66,2.15a.28.28,0,0,0,.26.2l13,.05a.26.26,0,0,0,.27-.23l.36-2.18a.27.27,0,0,0-.22-.32h0l-5.26-.09"/><path class="cls-1" d="M142.62,243.07h-7.56c-.17,0-.2.07-.1.21l1.74,2.25a.47.47,0,0,0,.39.19l12.59,0a.8.8,0,0,0,.78-.65l.27-1.38c.08-.42-.1-.63-.53-.63h-4.64a.71.71,0,0,1-.76-.59,3.55,3.55,0,0,1,.11-2,.25.25,0,0,0-.22-.36l-.29,0q-.15,0-.18.09l-.72,2.3a.85.85,0,0,1-.88.63"/><path class="cls-1" d="M181.69,243.23a.27.27,0,0,1-.26-.27l-.05-2.51a.27.27,0,0,0-.27-.27h0l-.48.07a.28.28,0,0,0-.23.25l-.28,2.44a.28.28,0,0,1-.26.25l-6.45.11a.28.28,0,0,0-.27.28v0l.45,2.27a.27.27,0,0,0,.27.22l13.35-.1a.29.29,0,0,0,.27-.22l.41-2a.27.27,0,0,0-.21-.32h0l-5.9-.24"/><path class="cls-1" d="M197.92,243.22a18.41,18.41,0,0,1-5.51.23q-1.33-.1-.93,1.17l.17.52a1.19,1.19,0,0,0,1.25.91h12.58a.6.6,0,0,0,.61-.59v-1.41a.47.47,0,0,0-.45-.47l-5.25-.11a.7.7,0,0,1-.78-.81l0-2a.42.42,0,0,0-.38-.47l-.3,0a.41.41,0,0,0-.54.33,4.79,4.79,0,0,0,0,2,.63.63,0,0,1-.47.72"/><path class="cls-1" d="M217.94,242.68a3.42,3.42,0,0,0,.06-1.92c-.09-.36-.25-.52-.47-.47a.61.61,0,0,0-.54.66v1.67a.68.68,0,0,1-.52.71,20.36,20.36,0,0,1-6,.25c-.58,0-.75.24-.51.76l.37.82a1.11,1.11,0,0,0,1.09.72l12.67,0c.57,0,.84-.28.81-.85l0-.53a.89.89,0,0,0-.88-.86h-5.32a.76.76,0,0,1-.73-1"/><path class="cls-1" d="M235.76,245.82c3.77.08,5.75.11,5.94.11a1.24,1.24,0,0,0,1.31-1.21.69.69,0,0,0-.58-.77h-.09l-5.24-.11A1.11,1.11,0,0,1,236,242.7a1,1,0,0,1,.12-.47,2.35,2.35,0,0,0,.13-1.58.23.23,0,0,0-.12-.17.5.5,0,0,0-.29-.09.47.47,0,0,0-.28.07.4.4,0,0,0-.14.18,2.38,2.38,0,0,0,.08,1.58,1.09,1.09,0,0,1-.54,1.46,1.07,1.07,0,0,1-.47.1l-5.25-.09a.69.69,0,0,0-.7.66.19.19,0,0,0,0,.08,1.24,1.24,0,0,0,1.25,1.27l5.93.12"/><path class="cls-1" d="M252.93,243.86l-5.11.23a.46.46,0,0,0-.49.52V245a.88.88,0,0,0,1,1l12.59,0a1,1,0,0,0,1-.82l.08-.41c.06-.37-.09-.57-.47-.58l-5.73-.25a1.33,1.33,0,0,1-1.3-1.23,1.14,1.14,0,0,1,.14-.54c.24-.39.11-1-.39-1.72a.11.11,0,0,0-.2,0l-.39.39a.33.33,0,0,0-.07.33c.53,1.56.37,2.46-.5,2.69l-.14,0"/><path class="cls-1" d="M271.76,241a1.13,1.13,0,0,0,.17.79.44.44,0,0,0,.6.17.47.47,0,0,0,.21-.25,1.23,1.23,0,0,0,.06-.78c-.4-.88-.75-.85-1,.07"/><path class="cls-1" d="M291.07,243.37v-2.43a.53.53,0,0,0-.34-.51,1,1,0,0,0-.44-.07c-.35,0-.48.21-.39.55a4.66,4.66,0,0,1,0,2.67.69.69,0,0,1-.71.53l-4.57.17c-.61,0-.76.31-.44.86l.16.27a1.35,1.35,0,0,0,1.16.67l12.34,0a.88.88,0,0,0,1-.79l.07-.37c.08-.4-.09-.6-.5-.61l-6.5-.14a.72.72,0,0,1-.79-.82"/><path class="cls-1" d="M106.42,242.49h-7a.28.28,0,0,0-.32.33l.13,2.75a.16.16,0,0,0,.18.16h10.82a.79.79,0,0,0,.81-.55l.54-1.39c.17-.47,0-.7-.49-.7a4.86,4.86,0,0,1-3.73-1.31c-.13-.14-.22-.13-.29.05l-.13.33a.47.47,0,0,1-.48.33"/><path class="cls-1" d="M273.19,243.75a1,1,0,0,0-1.41,0,1.46,1.46,0,0,1-1,.36h-4c-.73,0-1,.35-.77,1.06l.15.44a1.05,1.05,0,0,0,1,.73h11.58a1.27,1.27,0,0,0,1.28-.88l.22-.57a.53.53,0,0,0-.32-.69.57.57,0,0,0-.18,0h-5.52a1.51,1.51,0,0,1-1-.4"/><path class="cls-1" d="M97.2,245.94a2.25,2.25,0,0,0,.15-1.83.36.36,0,0,0-.19-.25.49.49,0,0,0-.38,0,.48.48,0,0,0-.34.55q.41,2.81-2.61,2.76-8.94-.13-21.47-.51a1.62,1.62,0,0,0-1.71,1.13l-.15.4c-.3.76,0,1.14.78,1.15q16.14,0,26,0a1.43,1.43,0,0,0,.89-.27,1.07,1.07,0,0,0,.31-1.25.94.94,0,0,0-.44-.54l-.61-.34a.62.62,0,0,1-.27-.93"/><path class="cls-1" d="M317.57,245.1a.93.93,0,0,0-.92-.93h0l-13.06,0a.92.92,0,0,0-.92.93h0v.08a.91.91,0,0,0,.92.93h0l13.05.05a.93.93,0,0,0,.93-.92h0v-.09"/><path class="cls-1" d="M111.8,247.39l-8.23,0a.81.81,0,0,0-.92,1l0,.43a.77.77,0,0,0,.75.74l12.67.27a1.1,1.1,0,0,0,1.15-.76l.22-.55a.61.61,0,0,0-.35-.79.45.45,0,0,0-.2,0l-2.56-.06a.61.61,0,0,1-.61-.62.66.66,0,0,1,0-.14,3.1,3.1,0,0,0-.21-2.49c-.3-.43-.51-.39-.6.13l-.47,2.38a.61.61,0,0,1-.67.57"/><path class="cls-1" d="M335.17,244.89a.69.69,0,0,0-.69-.7h0l-12.54-.09a.7.7,0,0,0-.7.69h0v.11a.69.69,0,0,0,.69.7h0l12.54.09a.69.69,0,0,0,.7-.69h0v-.11"/><path class="cls-1" d="M151.19,247.46l-10.7,0a.64.64,0,0,0-.72.72v1.43a.52.52,0,0,0,.58.59l13.46,0a.68.68,0,0,0,.71-.52q.55-1.8-.33-2.49a1.33,1.33,0,0,1-.52-1c0-.4-.08-.69-.12-.88q-.59-2.54-1.3,0-.13.45-.42,1.59a.59.59,0,0,1-.64.5"/><path class="cls-1" d="M171.8,246.92a2.51,2.51,0,0,0-.33-2c-.28-.45-.47-.41-.57.11l-.29,1.5a1.21,1.21,0,0,1-1.32,1.1H158.92a.53.53,0,0,0-.6.59v1.43a.55.55,0,0,0,.62.62l13.56,0a1,1,0,0,0,.8-.54,2.65,2.65,0,0,0,.26-1.33.65.65,0,0,0-.59-.69l-.75-.15a.47.47,0,0,1-.42-.63"/><path class="cls-1" d="M134.53,246.12a1.33,1.33,0,0,0-.12-.87c-.23-.5-.43-.49-.59,0-.08.27-.24.87-.48,1.78a.63.63,0,0,1-.67.52H122.14a.77.77,0,0,0-.86.84v.51a.69.69,0,0,0,.78.79h12.81a.92.92,0,0,0,.87-.5A2.1,2.1,0,0,0,136,248a.83.83,0,0,0-.56-.8l-.41-.15a.77.77,0,0,1-.53-.95"/><path class="cls-1" d="M190.24,246.65A4.5,4.5,0,0,0,190,245c-.2-.45-.42-.4-.64.17-.08.22-.3.89-.67,2a.76.76,0,0,1-.79.57H177.66c-.49,0-.72.24-.69.74l.06,1.29a.61.61,0,0,0,.69.66H191.4a.86.86,0,0,0,.86-.86v-1a.8.8,0,0,0-.76-.81,2,2,0,0,1-.58-.11,1,1,0,0,1-.68-1"/><path class="cls-1" d="M208.74,246.56a2.12,2.12,0,0,0-.39-1.58c-.38-.37-.54-.29-.49.24.14,1.58-.24,2.39-1.14,2.41q-5.43.13-10.36.14c-.22,0-.32.11-.31.33l.09,2.06a.43.43,0,0,0,.48.45h13.23a.69.69,0,0,0,.77-.76l0-1.87a.61.61,0,0,0-.59-.62h-.59a.67.67,0,0,1-.74-.79"/><path class="cls-1" d="M227.43,246.35c-.09-.58-.24-.94-.44-1.07s-.36-.09-.34.2c0,1.45-.52,2.18-1.71,2.16-4.82,0-8.39-.07-10.71-.11-.3,0-.41.14-.32.43l.8,2.5a.44.44,0,0,0,.46.33H229a.81.81,0,0,0,.91-.92,5.4,5.4,0,0,1,.28-1.8q.28-.84-.6-.72a2.67,2.67,0,0,1-1.55-.13,1.06,1.06,0,0,1-.65-.87"/><path class="cls-1" d="M243.82,247.54l-9.68,0a.64.64,0,0,0-.64.64v0l.1,2.14a.59.59,0,0,0,.66.63l13.43,0c.54,0,.74-.25.6-.77a2.21,2.21,0,0,1,.33-2c.25-.35.16-.53-.28-.53h-1.91a.51.51,0,0,1-.57-.55l-.08-1.44a.44.44,0,0,0-.21-.39.76.76,0,0,0-.28-.13q-.45-.06-.51.27l-.24,1.52a.66.66,0,0,1-.72.62"/><path class="cls-1" d="M264.46,247.1v-1.65a.35.35,0,0,0-.24-.36.37.37,0,0,0-.39.07.76.76,0,0,0-.25.44c-.17.63-.28,1.11-.35,1.45a.63.63,0,0,1-.69.56H251.82c-.27,0-.36.13-.26.38a7.21,7.21,0,0,1,.46,2.54.34.34,0,0,0,.34.34h13.17a1.08,1.08,0,0,0,1.17-1l.26-1.37a.66.66,0,0,0-.53-.77h-.23a2.55,2.55,0,0,1-1.27,0,.62.62,0,0,1-.47-.64"/><path class="cls-1" d="M286.45,247.88c0-.09,0-.13-.09-.13l-2.38,0a.75.75,0,0,1-.76-.61,3.33,3.33,0,0,0-.76-1.49c-.39-.4-.64-.33-.76.21l-.23,1.14a.8.8,0,0,1-.82.69l-9.86.48c-.26,0-.35.14-.28.38l.51,1.58a.45.45,0,0,0,.47.35l13.57.29a.38.38,0,0,0,.39-.26l1-2.59"/><path class="cls-1" d="M301.4,246.92c.06-.72,0-1.16-.33-1.34s-.61-.12-.69.31l-.17,1a1.11,1.11,0,0,1-1.08.89h-9.84a.36.36,0,0,0-.33.44l.68,2.1a.25.25,0,0,0,.26.19h13.77a.59.59,0,0,0,.67-.67v-1.51a.63.63,0,0,0-.63-.62h-.14a4.39,4.39,0,0,1-1.61,0,.67.67,0,0,1-.56-.73"/><path class="cls-1" d="M319.2,246.66a1.07,1.07,0,0,1-1.07,1.07h-9.47c-.41,0-.6.2-.58.6l.08,1.53a.55.55,0,0,0,.62.59H321.9a.81.81,0,0,0,.85-.63,5.18,5.18,0,0,0,.09-1.68.75.75,0,0,0-.63-.76,4.62,4.62,0,0,1-2.5-1.66q-.51-.65-.51.18v.76"/><path class="cls-1" d="M137.31,249.08a.32.32,0,0,0-.08.43h0c.33.47.59.55.8.25a.69.69,0,0,0,.1-.54c-.11-.41-.38-.46-.82-.14"/><path class="cls-1" d="M157,251.39c-.25-1.41-.39-2.11-.39-2.12-.23-.7-.38-.73-.46-.06l-.2,1.73a1,1,0,0,1-1.07,1h-6.44c-.13,0-.19.06-.16.18l.55,2.91a.2.2,0,0,0,.21.17h13.76a.88.88,0,0,0,.88-.73l.35-1.74c.08-.49-.11-.73-.6-.73h-5.75a.62.62,0,0,1-.68-.56"/><path class="cls-1" d="M212.53,248.85a.1.1,0,0,0-.13-.06.12.12,0,0,0-.07.07,2.29,2.29,0,0,0,.31,2.23c.24.32.37.28.38-.12a5.15,5.15,0,0,0-.49-2.12"/><path class="cls-1" d="M324.71,248.64a.16.16,0,0,0-.2.09s0,0,0,.06l-.26,3.11a.15.15,0,0,1-.16.14l-17.29.2a.16.16,0,0,1-.16-.16h0l0-2.79a.15.15,0,0,0-.13-.15l-.34,0a.15.15,0,0,0-.18.13v0l.05,2.51a.16.16,0,0,1-.16.16l-6.43.23a.14.14,0,0,0-.14.16.19.19,0,0,0,0,.08l1.46,2a.15.15,0,0,0,.12.07l37.81,0a.16.16,0,0,0,.16-.16.25.25,0,0,0,0-.07l-1.05-2.33a.16.16,0,0,0-.15-.09l-12.1.15a.16.16,0,0,1-.16-.14l-.33-3a.15.15,0,0,0-.11-.13l-.22-.08"/><path class="cls-1" d="M119.49,250.42l-.06-1.09c-.05-.85-.23-.87-.53-.08l-.58,1.49a.83.83,0,0,1-.85.58H111a.26.26,0,0,0-.29.3v2.48a.46.46,0,0,0,.53.52h13.65a.27.27,0,0,0,.31-.3,8.38,8.38,0,0,1,.51-2.55.27.27,0,0,0-.16-.35.18.18,0,0,0-.1,0h-4.89a1,1,0,0,1-1-1"/><path class="cls-1" d="M175.42,250.79l0-1c0-.75-.16-.79-.55-.14a10.11,10.11,0,0,0-.38,1.75.63.63,0,0,1-.69.57H167c-.19,0-.27.09-.24.28l.36,2.51a.39.39,0,0,0,.44.38H182a.5.5,0,0,0,.5-.49l.06-2.31c0-.12-.06-.18-.19-.18l-5.78-.12a1,1,0,0,1-1.14-1.22"/><path class="cls-1" d="M194.42,251.28l.06-1.52c0-.83-.14-.86-.52-.09a12.16,12.16,0,0,0-.57,1.77.81.81,0,0,1-.85.64H186c-.32,0-.44.16-.34.47l.73,2.24a.57.57,0,0,0,.58.45l13.66.29a.59.59,0,0,0,.66-.54l.42-2.15a.46.46,0,0,0-.38-.54h-.07l-6-.13a.75.75,0,0,1-.83-.88"/><path class="cls-1" d="M232.06,251.23a2.41,2.41,0,0,0,.12-1.45c-.4-.81-.57-.75-.53.19.07,1.71-.62,2.55-2.09,2.52-1.89,0-3.61,0-5.15,0-.48,0-.64.23-.5.68l.52,1.63a.68.68,0,0,0,.71.51h13.47a.77.77,0,0,0,.87-.87v-1.19a.59.59,0,0,0-.67-.67h-5.75a1,1,0,0,1-1-1,1,1,0,0,1,0-.29"/><path class="cls-1" d="M269.25,251.28a1.79,1.79,0,0,0-.29-1.7c-.25-.37-.45-.3-.61.19a7.81,7.81,0,0,0-.11,1.65.7.7,0,0,1-.75.77l-4.67.23c-.47,0-.63.26-.48.7l.36,1.17a.77.77,0,0,0,.8.57h13.17c.71,0,.95-.33.74-1l-.29-.87a1,1,0,0,0-1-.75h-6.19a.71.71,0,0,1-.71-.69.76.76,0,0,1,.05-.27"/><path class="cls-1" d="M250,249.8c-.31.38-.32.68,0,.93a.4.4,0,0,0,.57-.07.43.43,0,0,0,.09-.22,1,1,0,0,0-.17-.62.3.3,0,0,0-.42-.08l-.06.06"/><path class="cls-1" d="M287.54,250a1.1,1.1,0,0,0,0,.88.22.22,0,0,0,.3.08.2.2,0,0,0,.09-.09.93.93,0,0,0,0-.9.22.22,0,0,0-.3-.08.18.18,0,0,0-.1.11"/><path class="cls-1" d="M144.91,252.6c.18-.46,0-.7-.48-.7l-5.18-.11a1.17,1.17,0,0,1-.91-.45c-.52-.59-1-.65-1.54-.18a.85.85,0,0,1-.57.22h-7.58c-.27,0-.32.1-.15.31a3.54,3.54,0,0,1,.92,2.74c0,.24.08.35.32.35h13.7a.83.83,0,0,0,.85-.58l.62-1.6"/><path class="cls-1" d="M219.79,252.25H205.24c-.26,0-.34.12-.24.35a7.88,7.88,0,0,1,.65,2.43.36.36,0,0,0,.4.38h13.28a1.06,1.06,0,0,0,.92-.53,2.76,2.76,0,0,0,.26-2.07.67.67,0,0,0-.72-.56"/><path class="cls-1" d="M295.8,252.65a.55.55,0,0,0-.56-.54l-13.62.17a.55.55,0,0,0-.55.55h0l0,1.37a.55.55,0,0,0,.56.55l13.62-.17a.55.55,0,0,0,.55-.56h0l0-1.37"/><path class="cls-1" d="M244,255.14l14.15-.09a.53.53,0,0,0,.53-.53h0v-1.23c0-.58-3.37-1-7.5-1h-.24c-4.13,0-7.48.53-7.47,1.12h0v1.23a.52.52,0,0,0,.53.52"/><path class="cls-1" d="M109,255.24a3.91,3.91,0,0,1,0-2,.48.48,0,0,0-.32-.61.64.64,0,0,0-.46-.07c-.38.13-.65.36-.68.56-.26,2.24-1.26,3.13-3,2.69-.25-.06-.37,0-.37.29v3.72a.38.38,0,0,0,.37.38h14.32a.21.21,0,0,0,.19-.12l1.3-3.37c.13-.32,0-.48-.33-.47a75,75,0,0,1-10.24-.34.87.87,0,0,1-.82-.68"/><path class="cls-1" d="M127.58,255.61a4.9,4.9,0,0,0,0-2.15c-.08-.48-.24-.47-.48,0a7.89,7.89,0,0,0-.46,2.23.63.63,0,0,1-.69.62h-2a.6.6,0,0,0-.6.6v2.59a.8.8,0,0,0,.9.91h18.41a.34.34,0,0,0,.37-.3,8.68,8.68,0,0,1,1.41-3.54c.06-.09,0-.14-.08-.14H128.17a.62.62,0,0,1-.62-.63.64.64,0,0,1,0-.2"/><path class="cls-1" d="M184.62,255.45a.94.94,0,0,0,0-1.21c-.37-.36-.51-.29-.42.22.24,1.44-.16,2.16-1.21,2.19q-7.23.15-14.49.1a35.35,35.35,0,0,0-3.7-.21c-5.41.47-11,.26-16.88.22-1.28,0-1.55-.5-.79-1.44.16-.2.13-.64-.09-1.3s-.38-.54-.65-.06l-1.13,2c-.19.34-.09.55.28.63,1.93.41,2.53,1.6,1.79,3.55a.14.14,0,0,0,.07.18h91.5a.32.32,0,0,0,.35-.3l.53-2.77c0-.21-.05-.32-.26-.32H224a1.18,1.18,0,0,1-1.18-1.18v-.08a3.24,3.24,0,0,0-.21-1.34c-.11-.31-.27-.34-.47-.07a1.36,1.36,0,0,0-.14,1.14c.22,1.09-.22,1.63-1.34,1.63h-16a.73.73,0,0,1-.78-.61,5.74,5.74,0,0,1,0-2.15.29.29,0,0,0-.2-.36l-.27-.11c-.21-.08-.33,0-.37.2l-.48,2.52a.66.66,0,0,1-.71.59q-8,.11-16.52-.41a.86.86,0,0,1-.8-.92,1,1,0,0,1,.1-.34"/><path class="cls-1" d="M260,255.91a1.06,1.06,0,0,1-1,.84H243.65c-.45,0-.67.22-.64.66l.11,2.12a.56.56,0,0,0,.64.62h18.86a.2.2,0,0,0,.22-.19l.59-3.11a.24.24,0,0,0-.19-.29h-.09c-1.58.34-2.29-.43-2.11-2.31a.31.31,0,0,0-.22-.35l-.32-.13a.07.07,0,0,0-.08,0h0l-.39,2.09"/><path class="cls-1" d="M279.62,255.69a3.72,3.72,0,0,0-.14-1.51q-.21-.78-.45,0a1.93,1.93,0,0,0,0,1.28.77.77,0,0,1-.44,1,.71.71,0,0,1-.29.05H267.11c-.2,0-.29.11-.25.31l.47,2.91a.28.28,0,0,0,.3.26h14.23a.69.69,0,0,0,.78-.77v-1.4a1,1,0,0,1,.58-.92l.64-.29c1-.45,1-.57-.11-.36a10.35,10.35,0,0,1-3.67.09.57.57,0,0,1-.46-.65"/><path class="cls-1" d="M240.82,256.39a.3.3,0,0,0,.18.3c.46.19.75.09.89-.31a2.43,2.43,0,0,0-.14-2.1c-.3-.53-.5-.48-.6.12l-.33,2"/><path class="cls-1" d="M99,260.06a.33.33,0,0,0,.33-.24l1.12-3.69a.35.35,0,0,0-.23-.43h-.09l-32.32-.86a.32.32,0,0,0-.32.2l-1.65,3.9a.34.34,0,0,0,.18.45l.12,0,32.86.66"/><path class="cls-1" d="M121.56,258.82c-.24.17-.3.33-.2.49a.17.17,0,0,0,.21.08.27.27,0,0,0,.08-.1c.19-.5.16-.66-.09-.47"/><path class="cls-1" d="M240.92,259.15a1.62,1.62,0,0,0,.05.56.31.31,0,0,0,.43.24.4.4,0,0,0,.16-.3,2.06,2.06,0,0,0,0-.49c-.17-.88-.39-.89-.65,0"/><path class="cls-1" d="M256.26,283a.9.9,0,0,0,.89-.92v0l-.81-15.31a.9.9,0,0,0-.9-.86H150.37a.9.9,0,0,0-.89.74L146.56,282a.9.9,0,0,0,.72,1l.16,0H256.26"/><path class="cls-2" d="M72.1,226.7l-.49,2.59a.67.67,0,0,1-.72.59H41a2.07,2.07,0,0,1-2.07-2.07h0q0-102.85,0-205.67,0-5.54,1.49-7.83c1.65-2.52,4.35-3.79,8.1-3.79q154.88,0,309.76,0,5.28,0,7.52,1.16c2.75,1.42,4.13,3.88,4.13,7.4q0,59.81,0,208.81a2.25,2.25,0,0,1-1.56,2.14,7.32,7.32,0,0,1-2.1.21q-17.57,0-29.43,0a.62.62,0,0,1-.71-.69v-2.47A1.09,1.09,0,0,0,335,226H73A.82.82,0,0,0,72.1,226.7ZM359.62,24.1a.88.88,0,0,0-.88-.88H50.43a.89.89,0,0,0-.88.88V217.39a.88.88,0,0,0,.88.88H358.74a.87.87,0,0,0,.88-.88Z"/><rect class="cls-2" x="73.22" y="227.61" width="261.59" height="4.41" rx="0.33"/><path class="cls-2" d="M176.1,288.32a.6.6,0,0,0-.59-.62h0q-19.67,0-163.87-.05a4.11,4.11,0,0,1-2.37-.53,2.74,2.74,0,0,1-.82-3.52l28.5-50.69a2.73,2.73,0,0,1,2.36-1.38H70.43a.65.65,0,0,1,.65.61,1.54,1.54,0,0,0,.61,1.17,2.72,2.72,0,0,0,1.2.15q129.92.14,263.25.41a.64.64,0,0,0,.73-.73v-.51a.67.67,0,0,1,.76-.76l32.79.06a2.23,2.23,0,0,1,2,1.3l22.8,50.91a2,2,0,0,1-.71,2.69,5.49,5.49,0,0,1-3.32.84l-162.34,0a.63.63,0,0,0-.65.64v.08a3.15,3.15,0,0,1-1.32,3.25,5.75,5.75,0,0,1-3.08.59q-20.67,0-41.36,0C179,292.21,176,292.53,176.1,288.32ZM241.77,261l.18.41a.62.62,0,0,0,.61.39l21.34,0a.63.63,0,0,0,.71-.7l.06-2.76c0-.21.11-.29.31-.26l.37.08a.19.19,0,0,1,.15.17l.41,2.82a.6.6,0,0,0,.68.56l16.64-.23a.8.8,0,0,0,.77-.6,17.16,17.16,0,0,0,.32-2.1.84.84,0,0,1,.74-.74c.46-.12.61.05.45.5a4.34,4.34,0,0,0-.16,2.67.74.74,0,0,0,.71.54H302a1.49,1.49,0,0,0,1.42-1.94l-.3-.93a.26.26,0,0,1,.18-.37l.4-.12a.26.26,0,0,1,.33.16v0l.79,2.48a.75.75,0,0,0,.78.57l15.4,0a1.57,1.57,0,0,0,1.57-1.57V260l-.07-1.35a.48.48,0,0,1,.21-.41.85.85,0,0,1,.39-.17.45.45,0,0,1,.51.3,1.71,1.71,0,0,1,0,1.49,1,1,0,0,0,.35,1.37,1.07,1.07,0,0,0,.52.14H344.9a1.34,1.34,0,0,0,1.33-1.34,1.47,1.47,0,0,0,0-.36q-3.17-11.7-7.31-23a2.44,2.44,0,0,0-2.27-1.59L70.33,234.6a1.44,1.44,0,0,0-1.34.91l-9,23.3a1.56,1.56,0,0,0,.9,2,1.62,1.62,0,0,0,.53.11l38.6.81a.79.79,0,0,0,.81-.65l.63-3.3a.53.53,0,0,1,.38-.4l.64-.21c.27-.09.39,0,.34.29l-.59,3a1,1,0,0,0,.82,1.21l.18,0q8.06.18,14.71.17,2.52,0,3.06-.87c.19-.32.36-.31.5,0l.17.34a.65.65,0,0,0,.63.43l20.61.43a.92.92,0,0,0,.58-.17,3.42,3.42,0,0,0,1.34-3.08c0-.33.16-.47.48-.41l.38.08a.25.25,0,0,1,.21.29h0l-.38,2a1,1,0,0,0,.78,1.14h.18q50.35-.14,91.35-.2a20.56,20.56,0,0,0,2.78-.2.65.65,0,0,0,.45-.37.94.94,0,0,0,.1-.28C241.3,260.43,241.51,260.41,241.77,261Zm-91.44,3.26a2.51,2.51,0,0,0-2.46,2l-3,15.46a2.48,2.48,0,0,0,2.46,3l108.9,0a2.49,2.49,0,0,0,2.49-2.51v-.11L258,266.65a2.51,2.51,0,0,0-2.5-2.39Z"/><path class="cls-2" d="M99.69,250.46a3.45,3.45,0,0,1,.35-1.61.36.36,0,0,1,.46-.14.32.32,0,0,1,.16.2l.54,1.67a.65.65,0,0,0,.66.5l4.1.09c.48,0,.64.23.46.68l-.65,1.69a1.11,1.11,0,0,1-1.19.77q-18.22-.85-37-1.08A1.73,1.73,0,0,0,66,254.34l-1.67,4.3a1.12,1.12,0,0,1-1.06.77l-.5,0c-.86,0-1.14-.34-.83-1.14l8.13-21a1.23,1.23,0,0,1,1.18-.84l1.66-.09a.53.53,0,0,1,.56.51.42.42,0,0,1,0,.22l-1.56,4a.92.92,0,0,0,.86,1.25H87.63a.69.69,0,0,0,.69-.67,3.88,3.88,0,0,1,.56-2,.61.61,0,0,1,.5-.26h.43a.48.48,0,0,1,.47.48s0,.07,0,.1a4,4,0,0,1-.5,1.21.72.72,0,0,0,.21,1,.64.64,0,0,0,.38.12l4.42.1c.27,0,.37.14.32.4L94.68,245a.54.54,0,0,1-.54.44L71.89,245a2.34,2.34,0,0,0-2.43,1.64l-1,2.46c-.49,1.28,0,1.92,1.31,1.92H99.15A.55.55,0,0,0,99.69,250.46Z"/><path class="cls-2" d="M291.66,238.77h-2.53a.89.89,0,0,0-.89.88.77.77,0,0,0,0,.15c.29,1.72.2,2.59-.28,2.62q-5.61.22-13.16,0a.72.72,0,0,1-.68-.75.31.31,0,0,1,0-.1l.2-1.07a1.71,1.71,0,0,0-1.9-2c-2.2.31-3,1.16-2.26,2.56.46.92.17,1.38-.85,1.38l-12.29,0a.75.75,0,0,1-.78-.57,5.16,5.16,0,0,1,.1-2.27.59.59,0,0,0-.49-.74,5.13,5.13,0,0,0-3.37.29.83.83,0,0,0-.51.82l.09,1.84c0,.37-.16.56-.54.56l-13.2,0c-.32,0-.48-.17-.48-.5v-2.26a.67.67,0,0,0-.5-.69,4.34,4.34,0,0,0-3.12.13.84.84,0,0,0-.52.9c.24,1.52,0,2.28-.88,2.28q-6.61,0-12.73-.22a.44.44,0,0,1-.43-.44v-1.84a.87.87,0,0,0-.64-.84,6.36,6.36,0,0,0-3.24,0,.63.63,0,0,0-.52.7l.09,1.8c0,.4-.16.59-.56.58l-13,0c-.64,0-.85-.3-.61-.9l.23-.61a1.28,1.28,0,0,0-.74-1.65l-.24-.07c-2.82-.45-4.1.39-3.83,2.55.05.37-.12.56-.49.56H183.83c-.73,0-1-.36-.8-1.07.5-1.83-.58-2.54-3.26-2.13-1.15.18-1.55.83-1.2,1.94l.12.38c.14.42,0,.64-.46.64l-12.75,0a.51.51,0,0,1-.58-.55l-.08-1.71a.91.91,0,0,0-.82-.93,7.24,7.24,0,0,0-2.92.14.78.78,0,0,0-.66.84v1.6a.5.5,0,0,1-.57.56l-12.73,0a.68.68,0,0,1-.67-.69v-1.59a.87.87,0,0,0-.87-.88H143.8a1.05,1.05,0,0,0-1.14.95l-.3,1.58a.59.59,0,0,1-.64.53l-12.89,0a.51.51,0,0,1-.57-.59V239a.6.6,0,0,0-.67-.68h-2.44a.83.83,0,0,0-.84.55,5.54,5.54,0,0,0-.43,1.89.54.54,0,0,1-.61.58l-13.11,0c-.47,0-.62-.23-.44-.66l.64-1.68q.24-.63-.42-.75a10,10,0,0,0-4.08.19.65.65,0,0,0-.55.69v1.13a.61.61,0,0,1-.69.68l-12.12,0a.6.6,0,0,1-.66-.57,1.32,1.32,0,0,1,.33-1.09.79.79,0,0,0-.11-1.11.75.75,0,0,0-.35-.16,11.47,11.47,0,0,0-3.72.17.79.79,0,0,0-.7.7L87,240a.74.74,0,0,1-.8.68H74.34a.48.48,0,0,1-.47-.48.41.41,0,0,1,0-.16l1.32-3.39a.65.65,0,0,1,.67-.45l260.28.55a1.62,1.62,0,0,1,1.53,1.13l6.76,21.16a.56.56,0,0,1-.35.7l-.18,0H325.7a.43.43,0,0,1-.43-.42.27.27,0,0,1,0-.13c.5-1.74.22-2.68-.83-2.82a1.66,1.66,0,0,0-.27,0l-2.63.53a.85.85,0,0,0-.75.92v1.62c0,.4-.21.59-.62.58l-13.32,0a1,1,0,0,1-1-.64,2.73,2.73,0,0,1-.06-1.76.61.61,0,0,0-.45-.74.39.39,0,0,0-.15,0h-2.67c-1,0-1.36.48-1.1,1.44a3.59,3.59,0,0,1,.17,1.21.65.65,0,0,1-.72.64H287.13c-.2,0-.28-.09-.22-.28a6.31,6.31,0,0,0,.18-3.1c0-.19,0-.29.23-.3l9.34-.45a.69.69,0,0,0,.71-.63l.15-.76c.25-1.34.63-1.35,1.16,0,.07.19.16.52.28,1a.63.63,0,0,0,.66.49l39.19.09c1.5,0,2-.71,1.57-2.14l-.6-1.85a2.86,2.86,0,0,0-3.16-2.19l-9.34.45a.53.53,0,0,1-.63-.56l-.1-2a.46.46,0,0,1,.52-.54h9c1,0,1.34-.47,1-1.42l-.54-1.69a2.11,2.11,0,0,0-2.2-1.62h-23c-.6,0-.85-.29-.73-.88l.33-1.77c.13-.66-.15-1-.82-1h-1.91a.83.83,0,0,0-.83.82v.05l.1,2.14c0,.46-.19.68-.64.68H293.2a.57.57,0,0,1-.57-.57v-2.31A.85.85,0,0,0,291.66,238.77Z"/><ellipse class="cls-2" cx="107.49" cy="240.55" rx="1.04" ry="0.67" transform="translate(-155.75 229.42) rotate(-63.5)"/><path class="cls-2" d="M125.22,242.26l.4-2.12a.27.27,0,0,1,.28-.24l.5,0c.25,0,.32.1.23.33a3.05,3.05,0,0,0-.16,2.25.81.81,0,0,0,.81.55h4.93c.42,0,.56.21.39.62l-.66,1.72a.82.82,0,0,1-.84.57h-15a.27.27,0,0,1-.28-.2l-.72-2.25c-.11-.33,0-.5.37-.5h8.93A.81.81,0,0,0,125.22,242.26Z"/><path class="cls-2" d="M163.81,243.14l5.26.09a.28.28,0,0,1,.27.28s0,0,0,0l-.36,2.18a.26.26,0,0,1-.27.23l-13-.05a.28.28,0,0,1-.26-.2l-.66-2.15a.28.28,0,0,1,.17-.35H155l6.63-.15a.28.28,0,0,0,.27-.25l.28-2.73a.29.29,0,0,1,.31-.25h0l.49.09a.28.28,0,0,1,.23.25l.31,2.74A.26.26,0,0,0,163.81,243.14Z"/><path class="cls-2" d="M143.5,242.44l.72-2.3q0-.12.18-.09l.29,0a.25.25,0,0,1,.22.36,3.55,3.55,0,0,0-.11,2,.71.71,0,0,0,.76.59h4.64c.43,0,.61.21.53.63l-.27,1.38a.8.8,0,0,1-.78.65l-12.59,0a.47.47,0,0,1-.39-.19L135,243.28c-.1-.14-.07-.21.1-.21h7.56A.85.85,0,0,0,143.5,242.44Z"/><path class="cls-2" d="M181.69,243.23l5.9.24a.28.28,0,0,1,.27.28.07.07,0,0,1,0,.05l-.41,2a.29.29,0,0,1-.27.22l-13.35.1a.27.27,0,0,1-.27-.22l-.45-2.27a.29.29,0,0,1,.23-.32h0l6.45-.11a.28.28,0,0,0,.26-.25l.28-2.44a.28.28,0,0,1,.23-.25l.48-.07a.27.27,0,0,1,.31.24v0l.05,2.51A.27.27,0,0,0,181.69,243.23Z"/><path class="cls-2" d="M198.39,242.5a4.79,4.79,0,0,1,0-2,.41.41,0,0,1,.54-.33l.3,0a.42.42,0,0,1,.38.47l0,2a.7.7,0,0,0,.78.81l5.25.11a.47.47,0,0,1,.45.47v1.41a.6.6,0,0,1-.61.59H192.9a1.19,1.19,0,0,1-1.25-.91l-.17-.52q-.4-1.27.93-1.17a18.41,18.41,0,0,0,5.51-.23A.63.63,0,0,0,198.39,242.5Z"/><path class="cls-2" d="M217.94,242.68a.76.76,0,0,0,.52.94l.21,0H224a.89.89,0,0,1,.88.86l0,.53c0,.57-.24.86-.81.85l-12.67,0a1.11,1.11,0,0,1-1.09-.72l-.37-.82c-.24-.52-.07-.78.51-.76a20.36,20.36,0,0,0,6-.25.68.68,0,0,0,.52-.71V241a.61.61,0,0,1,.54-.66c.22,0,.38.11.47.47A3.42,3.42,0,0,1,217.94,242.68Z"/><path class="cls-2" d="M235.87,240.39a.5.5,0,0,1,.29.09.23.23,0,0,1,.12.17,2.35,2.35,0,0,1-.13,1.58,1.1,1.1,0,0,0,.47,1.48,1.15,1.15,0,0,0,.48.13l5.24.11a.67.67,0,0,1,.67.68v.09a1.24,1.24,0,0,1-1.31,1.21c-.19,0-2.17,0-5.94-.11l-5.93-.12a1.24,1.24,0,0,1-1.25-1.27.67.67,0,0,1,.61-.73h.08l5.25.09a1.09,1.09,0,0,0,1.11-1.09,1,1,0,0,0-.1-.47,2.38,2.38,0,0,1-.08-1.58.4.4,0,0,1,.14-.18A.47.47,0,0,1,235.87,240.39Z"/><path class="cls-2" d="M253.07,243.83c.87-.23,1-1.13.5-2.69a.33.33,0,0,1,.07-.33l.39-.39a.11.11,0,0,1,.2,0c.5.76.63,1.33.39,1.72a1.16,1.16,0,0,0,.56,1.6,1.39,1.39,0,0,0,.6.17l5.73.25c.38,0,.53.21.47.58l-.08.41a1,1,0,0,1-1,.82l-12.59,0a.88.88,0,0,1-1-1v-.35a.46.46,0,0,1,.49-.52l5.11-.23Z"/><path class="cls-2" d="M271.76,241c.29-.92.64-.95,1-.07a1.23,1.23,0,0,1-.06.78.44.44,0,0,1-.56.28.45.45,0,0,1-.25-.2A1.13,1.13,0,0,1,271.76,241Z"/><path class="cls-2" d="M291.86,244.19l6.5.14c.41,0,.58.21.5.61l-.07.37a.88.88,0,0,1-1,.79l-12.34,0a1.35,1.35,0,0,1-1.16-.67l-.16-.27c-.32-.55-.17-.84.44-.86l4.57-.17a.69.69,0,0,0,.71-.53,4.66,4.66,0,0,0,0-2.67c-.09-.34,0-.52.39-.55a1,1,0,0,1,.44.07.53.53,0,0,1,.34.51v2.43A.72.72,0,0,0,291.86,244.19Z"/><path class="cls-2" d="M106.9,242.16l.13-.33c.07-.18.16-.19.29-.05a4.86,4.86,0,0,0,3.73,1.31c.5,0,.66.23.49.7l-.54,1.39a.79.79,0,0,1-.81.55H99.37a.16.16,0,0,1-.18-.16l-.13-2.75a.28.28,0,0,1,.32-.33h7A.47.47,0,0,0,106.9,242.16Z"/><path class="cls-2" d="M274.22,244.15h5.52a.54.54,0,0,1,.54.54.39.39,0,0,1,0,.18l-.22.57a1.27,1.27,0,0,1-1.28.88H267.16a1.05,1.05,0,0,1-1-.73l-.15-.44c-.22-.71,0-1.06.77-1.06h4a1.46,1.46,0,0,0,1-.36,1,1,0,0,1,1.41,0A1.51,1.51,0,0,0,274.22,244.15Z"/><path class="cls-2" d="M97.47,246.87l.61.34a.94.94,0,0,1,.44.54,1.07,1.07,0,0,1-.31,1.25,1.43,1.43,0,0,1-.89.27q-9.9.06-26,0c-.82,0-1.08-.39-.78-1.15l.15-.4a1.62,1.62,0,0,1,1.71-1.13q12.54.38,21.47.51,3,0,2.61-2.76a.48.48,0,0,1,.34-.55.49.49,0,0,1,.38,0,.36.36,0,0,1,.19.25,2.25,2.25,0,0,1-.15,1.83A.62.62,0,0,0,97.47,246.87Z"/><rect class="cls-2" x="309.15" y="237.66" width="1.94" height="14.9" rx="0.93" transform="matrix(0, -1, 1, 0, 63.92, 554.38)"/><path class="cls-2" d="M112.47,246.82l.47-2.38c.09-.52.3-.56.6-.13a3.1,3.1,0,0,1,.21,2.49.63.63,0,0,0,.46.75h.14l2.56.06a.6.6,0,0,1,.59.62.78.78,0,0,1,0,.21l-.22.55a1.1,1.1,0,0,1-1.15.76l-12.67-.27a.77.77,0,0,1-.75-.74l0-.43a.81.81,0,0,1,.92-1l8.23,0A.61.61,0,0,0,112.47,246.82Z"/><rect class="cls-2" x="327.46" y="237.93" width="1.5" height="13.93" rx="0.69" transform="translate(81.03 571.39) rotate(-89.6)"/><path class="cls-2" d="M151.83,247q.28-1.14.42-1.59.72-2.55,1.3,0c0,.19.08.48.12.88a1.33,1.33,0,0,0,.52,1q.88.69.33,2.49a.68.68,0,0,1-.71.52l-13.46,0a.52.52,0,0,1-.58-.59v-1.43a.64.64,0,0,1,.72-.72l10.7,0A.59.59,0,0,0,151.83,247Z"/><path class="cls-2" d="M172.22,247.55l.75.15a.65.65,0,0,1,.59.69,2.65,2.65,0,0,1-.26,1.33,1,1,0,0,1-.8.54l-13.56,0a.55.55,0,0,1-.62-.62v-1.43a.53.53,0,0,1,.6-.59h10.37a1.21,1.21,0,0,0,1.32-1.1l.29-1.5c.1-.52.29-.56.57-.11a2.51,2.51,0,0,1,.33,2A.47.47,0,0,0,172.22,247.55Z"/><path class="cls-2" d="M135.06,247.07l.41.15a.83.83,0,0,1,.56.8,2.1,2.1,0,0,1-.3,1.21.92.92,0,0,1-.87.5H122.05a.69.69,0,0,1-.78-.79v-.51a.77.77,0,0,1,.86-.84h10.53a.63.63,0,0,0,.67-.52c.24-.91.4-1.51.48-1.78.16-.53.36-.54.59,0a1.33,1.33,0,0,1,.12.87A.77.77,0,0,0,135.06,247.07Z"/><path class="cls-2" d="M190.92,247.62a2,2,0,0,0,.58.11.8.8,0,0,1,.76.81v1a.86.86,0,0,1-.86.86H177.72a.61.61,0,0,1-.69-.66l-.06-1.29c0-.5.2-.74.69-.74h10.22a.76.76,0,0,0,.79-.57c.37-1.12.59-1.79.67-2,.22-.57.44-.62.64-.17a4.5,4.5,0,0,1,.26,1.67A1,1,0,0,0,190.92,247.62Z"/><path class="cls-2" d="M209.48,247.35h.59a.61.61,0,0,1,.59.62h0l0,1.87a.69.69,0,0,1-.77.76H196.62a.43.43,0,0,1-.48-.45l-.09-2.06c0-.22.09-.33.31-.33q4.94,0,10.36-.14c.9,0,1.28-.83,1.14-2.41-.05-.53.11-.61.49-.24a2.12,2.12,0,0,1,.39,1.58A.67.67,0,0,0,209.48,247.35Z"/><path class="cls-2" d="M228.08,247.22a2.67,2.67,0,0,0,1.55.13q.88-.12.6.72a5.4,5.4,0,0,0-.28,1.8.81.81,0,0,1-.91.92H215.17a.44.44,0,0,1-.46-.33l-.8-2.5c-.09-.29,0-.44.32-.43,2.32,0,5.89.07,10.71.11,1.19,0,1.76-.71,1.71-2.16,0-.29.1-.35.34-.2s.35.49.44,1.07A1.06,1.06,0,0,0,228.08,247.22Z"/><path class="cls-2" d="M244.54,246.92l.24-1.52q.06-.33.51-.27a.76.76,0,0,1,.28.13.44.44,0,0,1,.21.39l.08,1.44a.51.51,0,0,0,.57.55h1.91c.44,0,.53.18.28.53a2.21,2.21,0,0,0-.33,2c.14.52-.06.78-.6.77l-13.43,0a.59.59,0,0,1-.66-.63l-.1-2.14a.65.65,0,0,1,.61-.67h0l9.68,0A.66.66,0,0,0,244.54,246.92Z"/><path class="cls-2" d="M264.93,247.74a2.55,2.55,0,0,0,1.27,0,.66.66,0,0,1,.76.54.88.88,0,0,1,0,.23l-.26,1.37a1.08,1.08,0,0,1-1.17,1H252.36a.34.34,0,0,1-.34-.34,7.21,7.21,0,0,0-.46-2.54c-.1-.25,0-.38.26-.38h10.72a.63.63,0,0,0,.69-.56c.07-.34.18-.82.35-1.45a.76.76,0,0,1,.25-.44.37.37,0,0,1,.39-.07.35.35,0,0,1,.24.36v1.65A.62.62,0,0,0,264.93,247.74Z"/><path class="cls-2" d="M286.45,247.88l-1,2.59a.38.38,0,0,1-.39.26l-13.57-.29a.45.45,0,0,1-.47-.35l-.51-1.58c-.07-.24,0-.37.28-.38l9.86-.48a.8.8,0,0,0,.82-.69l.23-1.14c.12-.54.37-.61.76-.21a3.33,3.33,0,0,1,.76,1.49.75.75,0,0,0,.76.61l2.38,0C286.45,247.75,286.48,247.79,286.45,247.88Z"/><path class="cls-2" d="M302,247.65a4.39,4.39,0,0,0,1.61,0,.63.63,0,0,1,.75.47.34.34,0,0,1,0,.14v1.51a.59.59,0,0,1-.67.67H289.9a.25.25,0,0,1-.26-.19l-.68-2.1a.35.35,0,0,1,.23-.43h9.94a1.11,1.11,0,0,0,1.08-.89l.17-1c.08-.43.31-.53.69-.31s.39.62.33,1.34A.67.67,0,0,0,302,247.65Z"/><path class="cls-2" d="M319.2,246.66v-.76q0-.83.51-.18a4.62,4.62,0,0,0,2.5,1.66.75.75,0,0,1,.63.76,5.18,5.18,0,0,1-.09,1.68.81.81,0,0,1-.85.63H308.78a.55.55,0,0,1-.62-.59l-.08-1.53c0-.4.17-.6.58-.6h9.47a1.07,1.07,0,0,0,1.07-1.07Z"/><path class="cls-2" d="M137.31,249.08c.44-.32.71-.27.82.14a.69.69,0,0,1-.1.54c-.21.3-.47.22-.8-.25a.32.32,0,0,1,.08-.43Z"/><path class="cls-2" d="M157.72,252h5.75c.49,0,.68.24.6.73l-.35,1.74a.88.88,0,0,1-.88.73H149.08a.2.2,0,0,1-.21-.17l-.55-2.91c0-.12,0-.18.16-.18h6.44a1,1,0,0,0,1.07-1l.2-1.73c.08-.67.23-.64.46.06,0,0,.14.71.39,2.12A.62.62,0,0,0,157.72,252Z"/><path class="cls-2" d="M212.53,248.85A5.15,5.15,0,0,1,213,251c0,.4-.14.44-.38.12a2.29,2.29,0,0,1-.31-2.23.11.11,0,0,1,.13-.07A.11.11,0,0,1,212.53,248.85Z"/><path class="cls-2" d="M324.71,248.64l.22.08a.15.15,0,0,1,.11.13l.33,3a.16.16,0,0,0,.16.14l12.1-.15a.16.16,0,0,1,.15.09l1.05,2.33a.15.15,0,0,1-.07.21l-.07,0-37.81,0a.15.15,0,0,1-.12-.07l-1.46-2a.15.15,0,0,1,0-.21.13.13,0,0,1,.08,0l6.43-.23a.16.16,0,0,0,.16-.16l-.05-2.51a.15.15,0,0,1,.15-.15s0,0,0,0l.34,0a.15.15,0,0,1,.13.15l0,2.79a.16.16,0,0,0,.16.16h0l17.29-.2a.15.15,0,0,0,.16-.14l.26-3.11a.16.16,0,0,1,.16-.16Z"/><path class="cls-2" d="M119.49,250.42a1,1,0,0,0,1,1h4.89a.28.28,0,0,1,.28.27.36.36,0,0,1,0,.1,8.38,8.38,0,0,0-.51,2.55.27.27,0,0,1-.31.3H111.2a.46.46,0,0,1-.53-.52v-2.48a.26.26,0,0,1,.29-.3h6.51a.83.83,0,0,0,.85-.58l.58-1.49c.3-.79.48-.77.53.08Z"/><path class="cls-2" d="M175.42,250.79a1,1,0,0,0,1.14,1.22l5.78.12c.13,0,.19.06.19.18l-.06,2.31a.5.5,0,0,1-.5.49H167.56a.39.39,0,0,1-.44-.38l-.36-2.51c0-.19.05-.28.24-.28h6.83a.63.63,0,0,0,.69-.57,10.11,10.11,0,0,1,.38-1.75c.39-.65.57-.61.55.14Z"/><path class="cls-2" d="M195.25,252.16l6,.13a.48.48,0,0,1,.46.48s0,0,0,.07l-.42,2.15a.59.59,0,0,1-.66.54L187,255.24a.57.57,0,0,1-.58-.45l-.73-2.24c-.1-.31,0-.47.34-.47h6.56a.81.81,0,0,0,.85-.64,12.16,12.16,0,0,1,.57-1.77c.38-.77.56-.74.52.09l-.06,1.52A.75.75,0,0,0,195.25,252.16Z"/><path class="cls-2" d="M232.06,251.23a1,1,0,0,0,.72,1.29.9.9,0,0,0,.28,0h5.75a.59.59,0,0,1,.67.67v1.19a.77.77,0,0,1-.87.87H225.14a.68.68,0,0,1-.71-.51l-.52-1.63c-.14-.45,0-.67.5-.68,1.54,0,3.26,0,5.15,0,1.47,0,2.16-.81,2.09-2.52,0-.94.13-1,.53-.19A2.41,2.41,0,0,1,232.06,251.23Z"/><path class="cls-2" d="M269.25,251.28a.71.71,0,0,0,.39.91.86.86,0,0,0,.27.05h6.19a1,1,0,0,1,1,.75l.29.87c.21.67,0,1-.74,1H263.5a.77.77,0,0,1-.8-.57l-.36-1.17c-.15-.44,0-.67.48-.7l4.67-.23a.7.7,0,0,0,.75-.77,7.81,7.81,0,0,1,.11-1.65c.16-.49.36-.56.61-.19A1.79,1.79,0,0,1,269.25,251.28Z"/><path class="cls-2" d="M250,249.8a.3.3,0,0,1,.43,0l.05.06a1,1,0,0,1,.17.62.42.42,0,0,1-.44.38.43.43,0,0,1-.22-.09C249.7,250.48,249.71,250.18,250,249.8Z"/><path class="cls-2" d="M287.54,250a.23.23,0,0,1,.29-.13.26.26,0,0,1,.11.1.93.93,0,0,1,0,.9.23.23,0,0,1-.3.1.2.2,0,0,1-.09-.09A1.1,1.1,0,0,1,287.54,250Z"/><path class="cls-2" d="M144.91,252.6l-.62,1.6a.83.83,0,0,1-.85.58h-13.7c-.24,0-.34-.11-.32-.35a3.54,3.54,0,0,0-.92-2.74c-.17-.21-.12-.31.15-.31h7.58a.85.85,0,0,0,.57-.22c.51-.47,1-.41,1.54.18a1.17,1.17,0,0,0,.91.45l5.18.11C144.93,251.9,145.09,252.14,144.91,252.6Z"/><path class="cls-2" d="M205.24,252.25h14.55a.67.67,0,0,1,.72.56,2.76,2.76,0,0,1-.26,2.07,1.06,1.06,0,0,1-.92.53H206.05a.36.36,0,0,1-.4-.38,7.88,7.88,0,0,0-.65-2.43C204.9,252.37,205,252.25,205.24,252.25Z"/><rect class="cls-2" x="281.08" y="252.19" width="14.73" height="2.47" rx="0.55" transform="translate(-3.07 3.54) rotate(-0.7)"/><path class="cls-2" d="M244,255.14a.52.52,0,0,1-.53-.52v-1.23c0-.59,3.32-1.09,7.45-1.12h.26c4.13,0,7.48.43,7.5,1v1.23a.53.53,0,0,1-.52.54h0Z"/><path class="cls-2" d="M109.84,255.92a75,75,0,0,0,10.24.34c.35,0,.46.15.33.47l-1.3,3.37a.21.21,0,0,1-.19.12H104.6a.38.38,0,0,1-.37-.38v-3.72c0-.25.12-.35.37-.29,1.72.44,2.72-.45,3-2.69,0-.2.3-.43.68-.56a.64.64,0,0,1,.46.07.48.48,0,0,1,.32.61,3.91,3.91,0,0,0,0,2A.87.87,0,0,0,109.84,255.92Z"/><path class="cls-2" d="M127.58,255.61a.63.63,0,0,0,.4.8.63.63,0,0,0,.19,0h16.12c.11,0,.14.05.08.14a8.68,8.68,0,0,0-1.41,3.54.34.34,0,0,1-.37.3H124.18a.8.8,0,0,1-.9-.91v-2.59a.6.6,0,0,1,.6-.6h2a.63.63,0,0,0,.69-.62,7.89,7.89,0,0,1,.46-2.23c.24-.48.4-.49.48,0A4.9,4.9,0,0,1,127.58,255.61Z"/><path class="cls-2" d="M184.62,255.45a.86.86,0,0,0,.35,1.16.88.88,0,0,0,.35.1q8.49.53,16.52.41a.66.66,0,0,0,.71-.59L203,254c0-.21.16-.28.37-.2l.27.11a.29.29,0,0,1,.2.36,5.74,5.74,0,0,0,0,2.15.73.73,0,0,0,.78.61h16c1.12,0,1.56-.54,1.34-1.63a1.36,1.36,0,0,1,.14-1.14c.2-.27.36-.24.47.07a3.24,3.24,0,0,1,.21,1.34,1.19,1.19,0,0,0,1.1,1.26h15.58c.21,0,.3.11.26.32l-.53,2.77a.32.32,0,0,1-.35.3H147.42a.14.14,0,0,1-.14-.14.09.09,0,0,1,0-.05c.74-1.95.14-3.14-1.79-3.55-.37-.08-.47-.29-.28-.63l1.13-2c.27-.48.48-.46.65.06s.25,1.1.09,1.3c-.76.94-.49,1.42.79,1.44,5.83,0,11.47.25,16.88-.22a35.35,35.35,0,0,1,3.7.21q7.26,0,14.49-.1c1.05,0,1.45-.75,1.21-2.19-.09-.51.05-.58.42-.22A.94.94,0,0,1,184.62,255.45Z"/><path class="cls-2" d="M260,255.91l.39-2.09s0-.06.07,0h0l.32.13a.31.31,0,0,1,.22.35c-.18,1.88.53,2.65,2.11,2.31a.23.23,0,0,1,.28.19.17.17,0,0,1,0,.1l-.59,3.11a.2.2,0,0,1-.22.19H243.76a.56.56,0,0,1-.64-.62l-.11-2.12c0-.44.19-.66.64-.66H259A1.06,1.06,0,0,0,260,255.91Z"/><path class="cls-2" d="M279.62,255.69a.57.57,0,0,0,.46.65,10.35,10.35,0,0,0,3.67-.09c1.09-.21,1.13-.09.11.36l-.64.29a1,1,0,0,0-.58.92v1.4a.69.69,0,0,1-.78.77H267.63a.28.28,0,0,1-.3-.26l-.47-2.91c0-.2.05-.31.25-.31h11.18a.78.78,0,0,0,.78-.77.66.66,0,0,0-.05-.28,1.93,1.93,0,0,1,0-1.28q.24-.78.45,0A3.72,3.72,0,0,1,279.62,255.69Z"/><path class="cls-2" d="M240.82,256.39l.33-2c.1-.6.3-.65.6-.12a2.43,2.43,0,0,1,.14,2.1c-.14.4-.43.5-.89.31A.3.3,0,0,1,240.82,256.39Z"/><path class="cls-2" d="M99,260.06l-32.86-.66a.34.34,0,0,1-.33-.35.27.27,0,0,1,0-.12l1.65-3.9a.32.32,0,0,1,.32-.2l32.32.86a.33.33,0,0,1,.33.35.28.28,0,0,1,0,.09l-1.12,3.69A.33.33,0,0,1,99,260.06Z"/><path class="cls-2" d="M121.56,258.82c.25-.19.28,0,.09.47a.17.17,0,0,1-.2.11.2.2,0,0,1-.09-.09C121.26,259.15,121.32,259,121.56,258.82Z"/><path class="cls-2" d="M240.92,259.15c.26-.88.48-.87.65,0a2.06,2.06,0,0,1,0,.49.4.4,0,0,1-.16.3.31.31,0,0,1-.43-.24A1.62,1.62,0,0,1,240.92,259.15Z"/><path class="cls-2" d="M256.26,283H147.44a.91.91,0,0,1-.9-.91c0-.06,0-.11,0-.16l2.92-15.32a.9.9,0,0,1,.89-.74H255.44a.9.9,0,0,1,.9.86l.81,15.31a.91.91,0,0,1-.86,1Z"/><path class="cls-2" d="M174.6,290c.83,3.18,3,3.9,6.16,3.9q32,.06,42.76.05,5.13,0,6.47-4.08a.67.67,0,0,1,.69-.52H391.84a6.05,6.05,0,0,0,2.91-.83c.48-.26.72-.12.7.43l-.06,3.49a1.09,1.09,0,0,1-.47.88,7.43,7.43,0,0,1-4.56,1.5H16.79a34.31,34.31,0,0,1-7.06-.92,2,2,0,0,1-1.56-1.95v-3c0-.39.17-.5.52-.34a6.75,6.75,0,0,0,2.17.77h163A.75.75,0,0,1,174.6,290Z"/><path class="cls-3" d="M37.75,229.59a2,2,0,0,1-.28-.69l-.21-1q0-102.75,0-205.49c0-4.05.5-6.92,1.5-8.63A9.39,9.39,0,0,1,44,9.57a21.64,21.64,0,0,1,6.35-.67H357.77q6.27,0,8.88,1.55c4.47,2.63,4.91,6.66,4.91,11.94v205a11.06,11.06,0,0,1-.45,2.23.62.62,0,0,0,.41.82,4.34,4.34,0,0,1,2.36,2.07q11.07,24.57,22.06,49.19a12.07,12.07,0,0,1,1.08,4.57c0,.66,0,2.29.06,4.88,0,1.74-.41,2.93-1.25,3.58a9.09,9.09,0,0,1-5.63,1.72q-14.22,0-375.06-.15c-2.59,0-8.21-.46-8.56-3.86a76.81,76.81,0,0,1,0-7.92,4.54,4.54,0,0,1,.59-2.13q14.3-25.35,28-49.8a6,6,0,0,1,2.32-2.24A.52.52,0,0,0,37.75,229.59ZM73,226H335a1.09,1.09,0,0,1,1.09,1.1v2.47a.62.62,0,0,0,.71.69q11.87,0,29.43,0a7.32,7.32,0,0,0,2.1-.21,2.25,2.25,0,0,0,1.56-2.14q0-149,0-208.81c0-3.52-1.38-6-4.13-7.4q-2.24-1.15-7.52-1.16-154.89,0-309.76,0c-3.75,0-6.45,1.27-8.1,3.79q-1.49,2.3-1.49,7.83,0,102.82,0,205.67A2.07,2.07,0,0,0,41,229.88H70.89a.67.67,0,0,0,.72-.59l.49-2.59A.82.82,0,0,1,73,226Zm261.81,2a.33.33,0,0,0-.33-.33H73.55a.33.33,0,0,0-.33.33h0v3.75a.33.33,0,0,0,.33.33H334.48a.33.33,0,0,0,.33-.33ZM176.1,288.32c-.12,4.21,2.92,3.89,6.34,3.89q20.69,0,41.36,0a5.75,5.75,0,0,0,3.08-.59,3.15,3.15,0,0,0,1.32-3.25.65.65,0,0,1,.57-.72h.08l162.34,0a5.49,5.49,0,0,0,3.32-.84,2,2,0,0,0,.71-2.69l-22.8-50.91a2.23,2.23,0,0,0-2-1.3l-32.79-.06a.67.67,0,0,0-.76.76v.51a.64.64,0,0,1-.73.73q-133.33-.27-263.25-.41a2.72,2.72,0,0,1-1.2-.15,1.54,1.54,0,0,1-.61-1.17.65.65,0,0,0-.65-.61H39.3a2.73,2.73,0,0,0-2.36,1.38L8.44,283.6a2.74,2.74,0,0,0,.82,3.52,4.11,4.11,0,0,0,2.37.53q144.2.09,163.87.05a.6.6,0,0,1,.6.61ZM174.6,290a.75.75,0,0,0-.79-.62H10.86a6.75,6.75,0,0,1-2.17-.77c-.35-.16-.52-.05-.52.34v3a2,2,0,0,0,1.56,1.95,34.31,34.31,0,0,0,7.06.92H390.36a7.43,7.43,0,0,0,4.56-1.5,1.09,1.09,0,0,0,.47-.88l.06-3.49c0-.55-.22-.69-.7-.43a6.05,6.05,0,0,1-2.91.83H230.68a.67.67,0,0,0-.69.52q-1.34,4.07-6.47,4.08-10.77,0-42.76-.05C177.55,293.87,175.43,293.15,174.6,290Z"/><path class="cls-3" d="M359.62,217.39a.87.87,0,0,1-.88.88H50.43a.88.88,0,0,1-.88-.88V24.1a.89.89,0,0,1,.88-.88H358.74a.88.88,0,0,1,.88.88Zm-1.69-192.1a.5.5,0,0,0-.5-.49H51.72a.49.49,0,0,0-.49.49h0v190.8a.5.5,0,0,0,.49.5H357.43a.51.51,0,0,0,.5-.5Z"/><path class="cls-3" d="M241.15,261.06a.94.94,0,0,1-.1.28.65.65,0,0,1-.45.37,20.56,20.56,0,0,1-2.78.2q-41,.06-91.35.2a1,1,0,0,1-1-1,1.09,1.09,0,0,1,0-.18l.38-2a.26.26,0,0,0-.2-.29h0l-.38-.08c-.32-.06-.48.08-.48.41a3.42,3.42,0,0,1-1.34,3.08.92.92,0,0,1-.58.17l-20.61-.43a.65.65,0,0,1-.63-.43l-.17-.34c-.14-.34-.31-.35-.5,0q-.54.85-3.06.87-6.65,0-14.71-.17a1,1,0,0,1-1-1.06c0-.06,0-.12,0-.17l.59-3c0-.28-.07-.38-.34-.29l-.64.21a.53.53,0,0,0-.38.4l-.63,3.3a.79.79,0,0,1-.81.65l-38.6-.81a1.56,1.56,0,0,1-1.53-1.6,1.39,1.39,0,0,1,.1-.53l9-23.3a1.44,1.44,0,0,1,1.34-.91l266.28.56a2.44,2.44,0,0,1,2.27,1.59q4.14,11.26,7.31,23a1.35,1.35,0,0,1-1.29,1.7H324.43a1,1,0,0,1-1-1,.91.91,0,0,1,.14-.51,1.71,1.71,0,0,0,0-1.49.45.45,0,0,0-.51-.3.85.85,0,0,0-.39.17.48.48,0,0,0-.21.41l.07,1.35a1.56,1.56,0,0,1-1.47,1.65H321l-15.4,0a.75.75,0,0,1-.78-.57l-.79-2.48a.27.27,0,0,0-.33-.18h0l-.4.12a.26.26,0,0,0-.18.37l.3.93a1.48,1.48,0,0,1-1,1.87,1.23,1.23,0,0,1-.46.07H286.06a.74.74,0,0,1-.71-.54,4.34,4.34,0,0,1,.16-2.67c.16-.45,0-.62-.45-.5a.84.84,0,0,0-.74.74,17.16,17.16,0,0,1-.32,2.1.8.8,0,0,1-.77.6l-16.64.23a.6.6,0,0,1-.68-.56l-.41-2.82a.19.19,0,0,0-.15-.17l-.37-.08c-.2,0-.31.05-.31.26l-.06,2.76a.63.63,0,0,1-.71.7l-21.34,0a.62.62,0,0,1-.61-.39l-.18-.41C241.51,260.41,241.3,260.43,241.15,261.06ZM99.69,250.46a.55.55,0,0,1-.54.54H69.81c-1.36,0-1.8-.64-1.31-1.92l1-2.46A2.34,2.34,0,0,1,71.89,245l22.25.48a.54.54,0,0,0,.54-.44l.41-2.15c0-.26,0-.39-.32-.4l-4.42-.1a.72.72,0,0,1-.71-.75.66.66,0,0,1,.12-.38,4,4,0,0,0,.5-1.21.47.47,0,0,0-.35-.57h-.53a.61.61,0,0,0-.5.26,3.88,3.88,0,0,0-.56,2,.69.69,0,0,1-.69.67H72.71a.92.92,0,0,1-.92-.91,1,1,0,0,1,.06-.34l1.56-4a.53.53,0,0,0-.31-.69.54.54,0,0,0-.22,0l-1.66.09a1.23,1.23,0,0,0-1.18.84l-8.13,21c-.31.8,0,1.18.83,1.14l.5,0a1.12,1.12,0,0,0,1.06-.77l1.67-4.3a1.73,1.73,0,0,1,1.64-1.11q18.75.22,37,1.08a1.11,1.11,0,0,0,1.19-.77l.65-1.69c.18-.45,0-.67-.46-.68l-4.1-.09a.65.65,0,0,1-.66-.5l-.54-1.67a.33.33,0,0,0-.42-.22.4.4,0,0,0-.2.16A3.45,3.45,0,0,0,99.69,250.46Zm192-11.69a.85.85,0,0,1,1,1v2.31a.57.57,0,0,0,.57.57h13.62c.45,0,.66-.22.64-.68l-.1-2.14a.83.83,0,0,1,.77-.87h2c.67,0,.95.34.82,1l-.33,1.77c-.12.59.13.88.73.88h23a2.11,2.11,0,0,1,2.2,1.62l.54,1.69c.31,1,0,1.42-1,1.42h-9a.46.46,0,0,0-.52.54l.1,2a.53.53,0,0,0,.63.56l9.34-.45a2.86,2.86,0,0,1,3.16,2.19l.6,1.85c.45,1.43-.07,2.14-1.57,2.14l-39.19-.09a.63.63,0,0,1-.66-.49c-.12-.45-.21-.78-.28-1-.53-1.31-.91-1.3-1.16,0l-.15.76a.69.69,0,0,1-.71.63l-9.34.45c-.19,0-.27.11-.23.3a6.31,6.31,0,0,1-.18,3.1c-.06.19,0,.28.22.28h13.75a.65.65,0,0,0,.72-.64,3.59,3.59,0,0,0-.17-1.21c-.26-1,.1-1.44,1.1-1.44h2.67a.61.61,0,0,1,.62.61.77.77,0,0,1,0,.15,2.73,2.73,0,0,0,.06,1.76,1,1,0,0,0,1,.64l13.32,0c.41,0,.62-.18.62-.58v-1.62a.85.85,0,0,1,.75-.92l2.63-.53a1.66,1.66,0,0,1,.27,0c1.05.14,1.33,1.08.83,2.82a.42.42,0,0,0,.29.53l.12,0h18.23a.55.55,0,0,0,.53-.73L337.7,237.9a1.62,1.62,0,0,0-1.53-1.13l-260.28-.55a.65.65,0,0,0-.67.45l-1.32,3.39a.49.49,0,0,0,.28.61.45.45,0,0,0,.16,0h11.9A.74.74,0,0,0,87,240l.25-1.23a.79.79,0,0,1,.7-.7,11.47,11.47,0,0,1,3.72-.17.79.79,0,0,1,.63.91,1,1,0,0,1-.17.36,1.32,1.32,0,0,0-.33,1.09.6.6,0,0,0,.66.57l12.12,0a.61.61,0,0,0,.69-.68v-1.13a.65.65,0,0,1,.55-.69,10,10,0,0,1,4.08-.19q.66.12.42.75l-.64,1.68c-.18.43,0,.65.44.66l13.11,0a.54.54,0,0,0,.61-.58,5.54,5.54,0,0,1,.43-1.89.83.83,0,0,1,.84-.55h2.44a.6.6,0,0,1,.67.68v1.81a.51.51,0,0,0,.57.59l12.89,0a.59.59,0,0,0,.64-.53l.3-1.58a1.05,1.05,0,0,1,1.14-.95h1.78a.87.87,0,0,1,.87.88h0v1.59a.68.68,0,0,0,.67.69l12.73,0a.5.5,0,0,0,.57-.56v-1.6a.78.78,0,0,1,.66-.84,7.24,7.24,0,0,1,2.92-.14.91.91,0,0,1,.82.93l.08,1.71a.51.51,0,0,0,.58.55l12.75,0c.45,0,.6-.22.46-.64l-.12-.38c-.35-1.11.05-1.76,1.2-1.94,2.68-.41,3.76.3,3.26,2.13-.2.71.07,1.07.8,1.07h12.34c.37,0,.54-.19.49-.56-.27-2.16,1-3,3.83-2.55a1.29,1.29,0,0,1,1,1.47,1.82,1.82,0,0,1-.07.25l-.23.61c-.24.6,0,.9.61.9l13,0c.4,0,.58-.18.56-.58l-.09-1.8a.63.63,0,0,1,.52-.7,6.36,6.36,0,0,1,3.24,0,.87.87,0,0,1,.64.84v1.84a.44.44,0,0,0,.43.44q6.1.27,12.73.22c.83,0,1.12-.76.88-2.28a.84.84,0,0,1,.52-.9,4.34,4.34,0,0,1,3.12-.13.67.67,0,0,1,.5.69v2.26c0,.33.16.5.48.5l13.2,0c.38,0,.56-.19.54-.56L252,240a.83.83,0,0,1,.51-.82,5.13,5.13,0,0,1,3.37-.29.59.59,0,0,1,.49.74,5.16,5.16,0,0,0-.1,2.27.75.75,0,0,0,.78.57l12.29,0c1,0,1.31-.46.85-1.38-.7-1.4.06-2.25,2.26-2.56a1.69,1.69,0,0,1,1.91,1.44,2.1,2.1,0,0,1,0,.56l-.2,1.07a.7.7,0,0,0,.57.83l.1,0q7.55.21,13.16,0c.48,0,.57-.9.28-2.62a.87.87,0,0,1,.71-1h2.69ZM107,241.48c.33.17.81-.12,1.06-.63s.2-1.06-.14-1.23-.8.12-1.06.63S106.7,241.31,107,241.48Zm17.32,1.5h-8.93c-.35,0-.48.17-.37.5l.72,2.25a.27.27,0,0,0,.28.2h15a.82.82,0,0,0,.84-.57l.66-1.72c.17-.41,0-.62-.39-.62h-4.93a.81.81,0,0,1-.81-.55,3.05,3.05,0,0,1,.16-2.25c.09-.23,0-.34-.23-.33l-.5,0a.27.27,0,0,0-.28.24l-.4,2.12A.81.81,0,0,1,124.35,243Zm39.46.16a.26.26,0,0,1-.26-.24l-.31-2.74a.28.28,0,0,0-.23-.25l-.49-.09a.29.29,0,0,0-.32.23v0l-.28,2.73a.28.28,0,0,1-.27.25l-6.63.15a.27.27,0,0,0-.27.28.19.19,0,0,0,0,.08l.66,2.15a.28.28,0,0,0,.26.2l13,.05a.26.26,0,0,0,.27-.23l.36-2.18a.27.27,0,0,0-.22-.32h0Zm-21.19-.07h-7.56c-.17,0-.2.07-.1.21l1.74,2.25a.47.47,0,0,0,.39.19l12.59,0a.8.8,0,0,0,.78-.65l.27-1.38c.08-.42-.1-.63-.53-.63h-4.64a.71.71,0,0,1-.76-.59,3.55,3.55,0,0,1,.11-2,.25.25,0,0,0-.22-.36l-.29,0q-.15,0-.18.09l-.72,2.3A.85.85,0,0,1,142.62,243.07Zm39.07.16a.27.27,0,0,1-.26-.27l-.05-2.51a.27.27,0,0,0-.27-.27h0l-.48.07a.28.28,0,0,0-.23.25l-.28,2.44a.28.28,0,0,1-.26.25l-6.45.11a.28.28,0,0,0-.27.28v0l.45,2.27a.27.27,0,0,0,.27.22l13.35-.1a.29.29,0,0,0,.27-.22l.41-2a.27.27,0,0,0-.21-.32h0Zm16.23,0a18.41,18.41,0,0,1-5.51.23q-1.33-.1-.93,1.17l.17.52a1.19,1.19,0,0,0,1.25.91h12.58a.6.6,0,0,0,.61-.59v-1.41a.47.47,0,0,0-.45-.47l-5.25-.11a.7.7,0,0,1-.78-.81l0-2a.42.42,0,0,0-.38-.47l-.3,0a.41.41,0,0,0-.54.33,4.79,4.79,0,0,0,0,2A.63.63,0,0,1,197.92,243.22Zm20-.54a3.42,3.42,0,0,0,.06-1.92c-.09-.36-.25-.52-.47-.47a.61.61,0,0,0-.54.66v1.67a.68.68,0,0,1-.52.71,20.36,20.36,0,0,1-6,.25c-.58,0-.75.24-.51.76l.37.82a1.11,1.11,0,0,0,1.09.72l12.67,0c.57,0,.84-.28.81-.85l0-.53a.89.89,0,0,0-.88-.86h-5.32a.76.76,0,0,1-.73-1Zm17.82,3.14c3.77.08,5.75.11,5.94.11a1.24,1.24,0,0,0,1.31-1.21.69.69,0,0,0-.58-.77h-.09l-5.24-.11A1.11,1.11,0,0,1,236,242.7a1,1,0,0,1,.12-.47,2.35,2.35,0,0,0,.13-1.58.23.23,0,0,0-.12-.17.5.5,0,0,0-.29-.09.47.47,0,0,0-.28.07.4.4,0,0,0-.14.18,2.38,2.38,0,0,0,.08,1.58,1.09,1.09,0,0,1-.54,1.46,1.07,1.07,0,0,1-.47.1l-5.25-.09a.69.69,0,0,0-.7.66.19.19,0,0,0,0,.08,1.24,1.24,0,0,0,1.25,1.27Zm17.17-2-5.11.23a.46.46,0,0,0-.49.52V245a.88.88,0,0,0,1,1l12.59,0a1,1,0,0,0,1-.82l.08-.41c.06-.37-.09-.57-.47-.58l-5.73-.25a1.33,1.33,0,0,1-1.3-1.23,1.14,1.14,0,0,1,.14-.54c.24-.39.11-1-.39-1.72a.11.11,0,0,0-.2,0l-.39.39a.33.33,0,0,0-.07.33c.53,1.56.37,2.46-.5,2.69ZM271.76,241a1.13,1.13,0,0,0,.17.79.44.44,0,0,0,.6.17.47.47,0,0,0,.21-.25,1.23,1.23,0,0,0,.06-.78C272.4,240.05,272.05,240.08,271.76,241Zm19.31,2.37v-2.43a.53.53,0,0,0-.34-.51,1,1,0,0,0-.44-.07c-.35,0-.48.21-.39.55a4.66,4.66,0,0,1,0,2.67.69.69,0,0,1-.71.53l-4.57.17c-.61,0-.76.31-.44.86l.16.27a1.35,1.35,0,0,0,1.16.67l12.34,0a.88.88,0,0,0,1-.79l.07-.37c.08-.4-.09-.6-.5-.61l-6.5-.14A.72.72,0,0,1,291.07,243.37Zm-184.65-.88h-7a.28.28,0,0,0-.32.33l.13,2.75a.16.16,0,0,0,.18.16h10.82a.79.79,0,0,0,.81-.55l.54-1.39c.17-.47,0-.7-.49-.7a4.86,4.86,0,0,1-3.73-1.31c-.13-.14-.22-.13-.29.05l-.13.33A.47.47,0,0,1,106.42,242.49Zm166.77,1.26a1,1,0,0,0-1.41,0,1.46,1.46,0,0,1-1,.36h-4c-.73,0-1,.35-.77,1.06l.15.44a1.05,1.05,0,0,0,1,.73h11.58a1.27,1.27,0,0,0,1.28-.88l.22-.57a.53.53,0,0,0-.32-.69.57.57,0,0,0-.18,0h-5.52A1.51,1.51,0,0,1,273.19,243.75Zm-176,2.19a2.25,2.25,0,0,0,.15-1.83.36.36,0,0,0-.19-.25.49.49,0,0,0-.38,0,.48.48,0,0,0-.34.55q.41,2.81-2.61,2.76-8.94-.13-21.47-.51a1.62,1.62,0,0,0-1.71,1.13l-.15.4c-.3.76,0,1.14.78,1.15q16.14,0,26,0a1.43,1.43,0,0,0,.89-.27,1.07,1.07,0,0,0,.31-1.25.94.94,0,0,0-.44-.54l-.61-.34A.62.62,0,0,1,97.2,245.94Zm220.37-.84a.93.93,0,0,0-.92-.93h0l-13.06,0a.92.92,0,0,0-.92.93h0v.08a.91.91,0,0,0,.92.93h0l13.05.05a.93.93,0,0,0,.93-.92h0ZM111.8,247.39l-8.23,0a.81.81,0,0,0-.92,1l0,.43a.77.77,0,0,0,.75.74l12.67.27a1.1,1.1,0,0,0,1.15-.76l.22-.55a.61.61,0,0,0-.35-.79.45.45,0,0,0-.2,0l-2.56-.06a.61.61,0,0,1-.61-.62.66.66,0,0,1,0-.14,3.1,3.1,0,0,0-.21-2.49c-.3-.43-.51-.39-.6.13l-.47,2.38A.61.61,0,0,1,111.8,247.39Zm223.37-2.5a.69.69,0,0,0-.69-.7h0l-12.54-.09a.7.7,0,0,0-.7.69h0v.11a.69.69,0,0,0,.69.7h0l12.54.09a.69.69,0,0,0,.7-.69h0Zm-184,2.57-10.7,0a.64.64,0,0,0-.72.72v1.43a.52.52,0,0,0,.58.59l13.46,0a.68.68,0,0,0,.71-.52q.55-1.8-.33-2.49a1.33,1.33,0,0,1-.52-1c0-.4-.08-.69-.12-.88q-.59-2.54-1.3,0-.13.45-.42,1.59A.59.59,0,0,1,151.19,247.46Zm20.61-.54a2.51,2.51,0,0,0-.33-2c-.28-.45-.47-.41-.57.11l-.29,1.5a1.21,1.21,0,0,1-1.32,1.1H158.92a.53.53,0,0,0-.6.59v1.43a.55.55,0,0,0,.62.62l13.56,0a1,1,0,0,0,.8-.54,2.65,2.65,0,0,0,.26-1.33.65.65,0,0,0-.59-.69l-.75-.15A.47.47,0,0,1,171.8,246.92Zm-37.27-.8a1.33,1.33,0,0,0-.12-.87c-.23-.5-.43-.49-.59,0-.08.27-.24.87-.48,1.78a.63.63,0,0,1-.67.52H122.14a.77.77,0,0,0-.86.84v.51a.69.69,0,0,0,.78.79h12.81a.92.92,0,0,0,.87-.5A2.1,2.1,0,0,0,136,248a.83.83,0,0,0-.56-.8l-.41-.15A.77.77,0,0,1,134.53,246.12Zm55.71.53A4.5,4.5,0,0,0,190,245c-.2-.45-.42-.4-.64.17-.08.22-.3.89-.67,2a.76.76,0,0,1-.79.57H177.66c-.49,0-.72.24-.69.74l.06,1.29a.61.61,0,0,0,.69.66H191.4a.86.86,0,0,0,.86-.86v-1a.8.8,0,0,0-.76-.81,2,2,0,0,1-.58-.11A1,1,0,0,1,190.24,246.65Zm18.5-.09a2.12,2.12,0,0,0-.39-1.58c-.38-.37-.54-.29-.49.24.14,1.58-.24,2.39-1.14,2.41q-5.43.13-10.36.14c-.22,0-.32.11-.31.33l.09,2.06a.43.43,0,0,0,.48.45h13.23a.69.69,0,0,0,.77-.76l0-1.87a.61.61,0,0,0-.59-.62h-.59A.67.67,0,0,1,208.74,246.56Zm18.69-.21c-.09-.58-.24-.94-.44-1.07s-.36-.09-.34.2c0,1.45-.52,2.18-1.71,2.16-4.82,0-8.39-.07-10.71-.11-.3,0-.41.14-.32.43l.8,2.5a.44.44,0,0,0,.46.33H229a.81.81,0,0,0,.91-.92,5.4,5.4,0,0,1,.28-1.8q.28-.84-.6-.72a2.67,2.67,0,0,1-1.55-.13A1.06,1.06,0,0,1,227.43,246.35Zm16.39,1.19-9.68,0a.64.64,0,0,0-.64.64v0l.1,2.14a.59.59,0,0,0,.66.63l13.43,0c.54,0,.74-.25.6-.77a2.21,2.21,0,0,1,.33-2c.25-.35.16-.53-.28-.53h-1.91a.51.51,0,0,1-.57-.55l-.08-1.44a.44.44,0,0,0-.21-.39.76.76,0,0,0-.28-.13q-.45-.06-.51.27l-.24,1.52A.66.66,0,0,1,243.82,247.54Zm20.64-.44v-1.65a.35.35,0,0,0-.24-.36.37.37,0,0,0-.39.07.76.76,0,0,0-.25.44c-.17.63-.28,1.11-.35,1.45a.63.63,0,0,1-.69.56H251.82c-.27,0-.36.13-.26.38a7.21,7.21,0,0,1,.46,2.54.34.34,0,0,0,.34.34h13.17a1.08,1.08,0,0,0,1.17-1l.26-1.37a.66.66,0,0,0-.53-.77h-.23a2.55,2.55,0,0,1-1.27,0A.62.62,0,0,1,264.46,247.1Zm22,.78c0-.09,0-.13-.09-.13l-2.38,0a.75.75,0,0,1-.76-.61,3.33,3.33,0,0,0-.76-1.49c-.39-.4-.64-.33-.76.21l-.23,1.14a.8.8,0,0,1-.82.69l-9.86.48c-.26,0-.35.14-.28.38l.51,1.58a.45.45,0,0,0,.47.35l13.57.29a.38.38,0,0,0,.39-.26Zm14.95-1c.06-.72,0-1.16-.33-1.34s-.61-.12-.69.31l-.17,1a1.11,1.11,0,0,1-1.08.89h-9.84a.36.36,0,0,0-.33.44l.68,2.1a.25.25,0,0,0,.26.19h13.77a.59.59,0,0,0,.67-.67v-1.51a.63.63,0,0,0-.63-.62h-.14a4.39,4.39,0,0,1-1.61,0A.67.67,0,0,1,301.4,246.92Zm17.8-.26a1.07,1.07,0,0,1-1.07,1.07h-9.47c-.41,0-.6.2-.58.6l.08,1.53a.55.55,0,0,0,.62.59H321.9a.81.81,0,0,0,.85-.63,5.18,5.18,0,0,0,.09-1.68.75.75,0,0,0-.63-.76,4.62,4.62,0,0,1-2.5-1.66q-.51-.65-.51.18Zm-181.89,2.42a.32.32,0,0,0-.08.43h0c.33.47.59.55.8.25a.69.69,0,0,0,.1-.54C138,248.81,137.75,248.76,137.31,249.08ZM157,251.39c-.25-1.41-.39-2.11-.39-2.12-.23-.7-.38-.73-.46-.06l-.2,1.73a1,1,0,0,1-1.07,1h-6.44c-.13,0-.19.06-.16.18l.55,2.91a.2.2,0,0,0,.21.17h13.76a.88.88,0,0,0,.88-.73l.35-1.74c.08-.49-.11-.73-.6-.73h-5.75A.62.62,0,0,1,157,251.39Zm55.49-2.54a.1.1,0,0,0-.13-.06.12.12,0,0,0-.07.07,2.29,2.29,0,0,0,.31,2.23c.24.32.37.28.38-.12A5.15,5.15,0,0,0,212.53,248.85Zm112.18-.21a.16.16,0,0,0-.2.09s0,0,0,.06l-.26,3.11a.15.15,0,0,1-.16.14l-17.29.2a.16.16,0,0,1-.16-.16h0l0-2.79a.15.15,0,0,0-.13-.15l-.34,0a.15.15,0,0,0-.18.13v0l.05,2.51a.16.16,0,0,1-.16.16l-6.43.23a.14.14,0,0,0-.14.16.19.19,0,0,0,0,.08l1.46,2a.15.15,0,0,0,.12.07l37.81,0a.16.16,0,0,0,.16-.16.25.25,0,0,0,0-.07l-1.05-2.33a.16.16,0,0,0-.15-.09l-12.1.15a.16.16,0,0,1-.16-.14l-.33-3a.15.15,0,0,0-.11-.13Zm-205.22,1.78-.06-1.09c-.05-.85-.23-.87-.53-.08l-.58,1.49a.83.83,0,0,1-.85.58H111a.26.26,0,0,0-.29.3v2.48a.46.46,0,0,0,.53.52h13.65a.27.27,0,0,0,.31-.3,8.38,8.38,0,0,1,.51-2.55.27.27,0,0,0-.16-.35.18.18,0,0,0-.1,0h-4.89A1,1,0,0,1,119.49,250.42Zm55.93.37,0-1c0-.75-.16-.79-.55-.14a10.11,10.11,0,0,0-.38,1.75.63.63,0,0,1-.69.57H167c-.19,0-.27.09-.24.28l.36,2.51a.39.39,0,0,0,.44.38H182a.5.5,0,0,0,.5-.49l.06-2.31c0-.12-.06-.18-.19-.18l-5.78-.12A1,1,0,0,1,175.42,250.79Zm19,.49.06-1.52c0-.83-.14-.86-.52-.09a12.16,12.16,0,0,0-.57,1.77.81.81,0,0,1-.85.64H186c-.32,0-.44.16-.34.47l.73,2.24a.57.57,0,0,0,.58.45l13.66.29a.59.59,0,0,0,.66-.54l.42-2.15a.46.46,0,0,0-.38-.54h-.07l-6-.13A.75.75,0,0,1,194.42,251.28Zm37.64-.05a2.41,2.41,0,0,0,.12-1.45c-.4-.81-.57-.75-.53.19.07,1.71-.62,2.55-2.09,2.52-1.89,0-3.61,0-5.15,0-.48,0-.64.23-.5.68l.52,1.63a.68.68,0,0,0,.71.51h13.47a.77.77,0,0,0,.87-.87v-1.19a.59.59,0,0,0-.67-.67h-5.75a1,1,0,0,1-1-1A1,1,0,0,1,232.06,251.23Zm37.19.05a1.79,1.79,0,0,0-.29-1.7c-.25-.37-.45-.3-.61.19a7.81,7.81,0,0,0-.11,1.65.7.7,0,0,1-.75.77l-4.67.23c-.47,0-.63.26-.48.7l.36,1.17a.77.77,0,0,0,.8.57h13.17c.71,0,.95-.33.74-1l-.29-.87a1,1,0,0,0-1-.75h-6.19a.71.71,0,0,1-.71-.69A.76.76,0,0,1,269.25,251.28ZM250,249.8c-.31.38-.32.68,0,.93a.4.4,0,0,0,.57-.07.43.43,0,0,0,.09-.22,1,1,0,0,0-.17-.62.3.3,0,0,0-.42-.08Zm37.52.22a1.1,1.1,0,0,0,0,.88.22.22,0,0,0,.3.08.2.2,0,0,0,.09-.09.93.93,0,0,0,0-.9.22.22,0,0,0-.3-.08A.18.18,0,0,0,287.54,250ZM144.91,252.6c.18-.46,0-.7-.48-.7l-5.18-.11a1.17,1.17,0,0,1-.91-.45c-.52-.59-1-.65-1.54-.18a.85.85,0,0,1-.57.22h-7.58c-.27,0-.32.1-.15.31a3.54,3.54,0,0,1,.92,2.74c0,.24.08.35.32.35h13.7a.83.83,0,0,0,.85-.58Zm74.88-.35H205.24c-.26,0-.34.12-.24.35a7.88,7.88,0,0,1,.65,2.43.36.36,0,0,0,.4.38h13.28a1.06,1.06,0,0,0,.92-.53,2.76,2.76,0,0,0,.26-2.07A.67.67,0,0,0,219.79,252.25Zm76,.4a.55.55,0,0,0-.56-.54l-13.62.17a.55.55,0,0,0-.55.55h0l0,1.37a.55.55,0,0,0,.56.55l13.62-.17a.55.55,0,0,0,.55-.56h0ZM244,255.14l14.15-.09a.53.53,0,0,0,.53-.53h0v-1.23c0-.58-3.37-1-7.5-1h-.24c-4.13,0-7.48.53-7.47,1.12h0v1.23A.52.52,0,0,0,244,255.14Zm-135,.1a3.91,3.91,0,0,1,0-2,.48.48,0,0,0-.32-.61.64.64,0,0,0-.46-.07c-.38.13-.65.36-.68.56-.26,2.24-1.26,3.13-3,2.69-.25-.06-.37,0-.37.29v3.72a.38.38,0,0,0,.37.38h14.32a.21.21,0,0,0,.19-.12l1.3-3.37c.13-.32,0-.48-.33-.47a75,75,0,0,1-10.24-.34A.87.87,0,0,1,109,255.24Zm18.56.37a4.9,4.9,0,0,0,0-2.15c-.08-.48-.24-.47-.48,0a7.89,7.89,0,0,0-.46,2.23.63.63,0,0,1-.69.62h-2a.6.6,0,0,0-.6.6v2.59a.8.8,0,0,0,.9.91h18.41a.34.34,0,0,0,.37-.3,8.68,8.68,0,0,1,1.41-3.54c.06-.09,0-.14-.08-.14H128.17a.62.62,0,0,1-.62-.63A.64.64,0,0,1,127.58,255.61Zm57-.16a.94.94,0,0,0,0-1.21c-.37-.36-.51-.29-.42.22.24,1.44-.16,2.16-1.21,2.19q-7.23.15-14.49.1a35.35,35.35,0,0,0-3.7-.21c-5.41.47-11,.26-16.88.22-1.28,0-1.55-.5-.79-1.44.16-.2.13-.64-.09-1.3s-.38-.54-.65-.06l-1.13,2c-.19.34-.09.55.28.63,1.93.41,2.53,1.6,1.79,3.55a.14.14,0,0,0,.07.18h91.5a.32.32,0,0,0,.35-.3l.53-2.77c0-.21-.05-.32-.26-.32H224a1.18,1.18,0,0,1-1.18-1.18v-.08a3.24,3.24,0,0,0-.21-1.34c-.11-.31-.27-.34-.47-.07a1.36,1.36,0,0,0-.14,1.14c.22,1.09-.22,1.63-1.34,1.63h-16a.73.73,0,0,1-.78-.61,5.74,5.74,0,0,1,0-2.15.29.29,0,0,0-.2-.36l-.27-.11c-.21-.08-.33,0-.37.2l-.48,2.52a.66.66,0,0,1-.71.59q-8,.11-16.52-.41a.86.86,0,0,1-.8-.92A1,1,0,0,1,184.62,255.45Zm75.4.46a1.06,1.06,0,0,1-1,.84H243.65c-.45,0-.67.22-.64.66l.11,2.12a.56.56,0,0,0,.64.62h18.86a.2.2,0,0,0,.22-.19l.59-3.11a.24.24,0,0,0-.19-.29h-.09c-1.58.34-2.29-.43-2.11-2.31a.31.31,0,0,0-.22-.35l-.32-.13a.07.07,0,0,0-.08,0h0Zm19.6-.22a3.72,3.72,0,0,0-.14-1.51q-.21-.78-.45,0a1.93,1.93,0,0,0,0,1.28.77.77,0,0,1-.44,1,.71.71,0,0,1-.29.05H267.11c-.2,0-.29.11-.25.31l.47,2.91a.28.28,0,0,0,.3.26h14.23a.69.69,0,0,0,.78-.77v-1.4a1,1,0,0,1,.58-.92l.64-.29c1-.45,1-.57-.11-.36a10.35,10.35,0,0,1-3.67.09A.57.57,0,0,1,279.62,255.69Zm-38.8.7a.3.3,0,0,0,.18.3c.46.19.75.09.89-.31a2.43,2.43,0,0,0-.14-2.1c-.3-.53-.5-.48-.6.12ZM99,260.06a.33.33,0,0,0,.33-.24l1.12-3.69a.35.35,0,0,0-.23-.43h-.09l-32.32-.86a.32.32,0,0,0-.32.2l-1.65,3.9a.34.34,0,0,0,.18.45l.12,0Zm22.54-1.24c-.24.17-.3.33-.2.49a.17.17,0,0,0,.21.08.27.27,0,0,0,.08-.1C121.84,258.79,121.81,258.63,121.56,258.82Zm119.36.33a1.62,1.62,0,0,0,.05.56.31.31,0,0,0,.43.24.4.4,0,0,0,.16-.3,2.06,2.06,0,0,0,0-.49C241.4,258.28,241.18,258.27,240.92,259.15Z"/><path class="cls-3" d="M150.33,264.25H255.52a2.51,2.51,0,0,1,2.5,2.39l.75,15.45a2.5,2.5,0,0,1-2.38,2.62h-.11l-108.9,0a2.5,2.5,0,0,1-2.51-2.5,2.31,2.31,0,0,1,0-.46l3-15.46A2.51,2.51,0,0,1,150.33,264.25ZM256.26,283a.9.9,0,0,0,.89-.92v0l-.81-15.31a.9.9,0,0,0-.9-.86H150.37a.9.9,0,0,0-.89.74L146.56,282a.9.9,0,0,0,.72,1l.16,0Z"/></svg>