<svg id="Capa_1" data-name="Capa 1" xmlns="http://www.w3.org/2000/svg" xmlns:xlink="http://www.w3.org/1999/xlink" viewBox="0 0 2523.85 1559.75"><defs><style>.cls-1,.cls-2,.cls-3{stroke:#1d1d1b;stroke-miterlimit:10;stroke-width:10px;}.cls-1{fill:url(#Degradado_sin_nombre_4);}.cls-2{fill:#fff;}.cls-3{fill:url(#Degradado_sin_nombre_4-2);}</style><linearGradient id="Degradado_sin_nombre_4" x1="801.86" y1="1266.93" x2="1192.07" y2="1266.93" gradientUnits="userSpaceOnUse"><stop offset="0" stop-color="#fff"/><stop offset="1" stop-color="#575756"/></linearGradient><linearGradient id="Degradado_sin_nombre_4-2" x1="36.96" y1="1018.46" x2="1956.96" y2="1018.46" xlink:href="#Degradado_sin_nombre_4"/></defs><polygon class="cls-1" points="1127.57 1074.39 849.85 1074.39 801.86 1459.46 1192.07 1459.46 1127.57 1074.39"/><path class="cls-2" d="M1915.82,28.47H78.1A41.14,41.14,0,0,0,37,69.61V928.47H1957V69.61A41.14,41.14,0,0,0,1915.82,28.47ZM1897,827.32a41.14,41.14,0,0,1-41.14,41.15H138.1A41.14,41.14,0,0,1,97,827.32V129.61A41.14,41.14,0,0,1,138.1,88.47H1855.82A41.14,41.14,0,0,1,1897,129.61Z"/><path class="cls-3" d="M37,927.18H1957a0,0,0,0,1,0,0v142.61a40,40,0,0,1-40,40H81.43A44.46,44.46,0,0,1,37,1065.29V927.18a0,0,0,0,1,0,0Z"/><path class="cls-2" d="M2475,1492V458.32c0-12.78-14.74-23.14-32.91-23.14h-662A25.12,25.12,0,0,0,1755,460.3v1011a43.93,43.93,0,0,0,43.93,43.93h643.16C2460.26,1515.18,2475,1504.82,2475,1492Zm-639.08-10.61c-18.19,0-32.92-10.36-32.92-23.14V492.07c0-12.78,14.73-23.14,32.92-23.14h558.17c18.17,0,32.91,10.36,32.91,23.14v966.22c0,12.78-14.74,23.14-32.91,23.14Z"/></svg>