<?xml version="1.0" encoding="utf-8"?>
<!-- Generator: Adobe Illustrator 26.0.3, SVG Export Plug-In . SVG Version: 6.00 Build 0)  -->
<svg version="1.1" id="Capa_1" xmlns="http://www.w3.org/2000/svg" xmlns:xlink="http://www.w3.org/1999/xlink" x="0px" y="0px"
	 viewBox="0 0 500 500" style="enable-background:new 0 0 500 500;" xml:space="preserve">
<style type="text/css">
	.st0{fill:none;stroke:#818181;stroke-width:2;}
	.st1{fill:#FFFFFF;}
	.st2{fill:#030303;}
</style>
<rect x="160" y="55.8" width="178.5" height="19.7"/>
<g>
	<path vector-effect="non-scaling-stroke" class="st0" d="M350.5,159.4h0.3c0,0,0,0,0,0c0.2-5.9,0.4-11.8,0.4-17.8
		c0-0.6,0-1.5,0-2.8c0.1-5.9,0.1-24.6,0.1-56.4c0-7.6-0.5-13-1.5-16.1c-2.4-7.6-7.2-13.5-14.2-17.7c-4.4-2.6-9.3-4-14.8-4.2
		c-4.5-0.2-8.1-0.3-10.7-0.3c-29.3,0.1-65.1,0.1-107.3,0c-7.7,0-15.7,0.1-23.8,0.3c-6.8,0.2-12.8,2.3-18.1,6.2c-5.3,4-9,9-11,15
		c-1,2.9-1.5,8.2-1.5,15.8c0,5.4,0,16.5,0,33.3c0,0.9,0,1.4,0,1.5c0,14.8,0,28-0.1,39.7c-0.1,13.3-0.1,26.3,0.1,39
		c0,0.2,0,0.7,0,1.5c0,138.1-0.1,212.5-0.1,223.3c0,5.9,0.3,10.1,1,12.6c1.1,4.3,3.1,8.1,6,11.5c4.3,5.1,9.4,8.6,15.4,10.3
		c3,0.9,8.9,1.3,17.7,1.3c42.7,0.1,86.2,0.1,130.5,0c6.4,0,12.1-1.6,17.1-4.8c8.8-5.6,13.8-13.6,14.9-24.1c0.2-1.7,0.3-4.6,0.2-8.6
		c0-5.1,0-79.1,0-221.8c0-5.3-0.1-11.3-0.3-18.1c-0.2-6.1-0.3-12.1-0.2-18.2c0-0.1-0.1-0.2-0.2-0.2h0c-0.1,0-0.2,0.1-0.2,0.2
		c0,4.7-0.1,9.3-0.1,14c-0.2,27.5-0.2,110.6,0.1,249.3c0,7.2-2.1,13.6-6.3,19.1c-4.3,5.6-9.6,9.2-15.9,10.8
		c-2.4,0.6-8.6,0.9-18.4,0.9c-41,0-82.1,0-123.1,0c-7.1,0-11.6-0.2-13.4-0.5c-10.3-2.1-18.9-10.5-22.1-20.4
		c-0.9-2.7-1.3-6.9-1.4-12.5c0-6.7-0.1-10.9-0.1-12.6c0.1-128.1,0.1-211.4,0.1-249.8c0-21.3,0-47.9,0.1-79.6c0-5,0.4-8.7,1.1-11.2
		c1.1-3.7,2.8-7.1,5.3-10.2c6-7.7,14.1-11.5,24.1-11.4c20.6,0.2,66.3,0.2,137.1,0.1c5.2,0,8.9,0.3,11.1,0.9c3.6,1,7,2.8,10.2,5.3
		c4.8,3.8,8.2,8.5,10.1,14.3c0.9,2.8,1.4,7.4,1.4,13.5c0,26.5,0,52.9,0,79.2C350.2,159.3,350.3,159.4,350.5,159.4"/>
	<path vector-effect="non-scaling-stroke" class="st0" d="M151,424.5c0,15.7,12.8,28.5,28.5,28.5l141,0c15.7,0,28.5-12.8,28.5-28.5
		l0,0l0-348.9c0-15.7-12.8-28.5-28.5-28.5c0,0,0,0,0,0l-141,0C163.8,47,151,59.8,151,75.5l0,0L151,424.5"/>
	<path vector-effect="non-scaling-stroke" class="st0" d="M147.3,101.2c0-0.2-0.2-0.4-0.4-0.4l0,0l-0.2,0c-0.2,0-0.4,0.2-0.4,0.4
		l0.3,12.3c0,0.2,0.2,0.4,0.4,0.4l0.2,0c0.2,0,0.4-0.2,0.4-0.4L147.3,101.2"/>
	<path vector-effect="non-scaling-stroke" class="st0" d="M147.4,131.4c0-0.2-0.2-0.4-0.4-0.4l0,0l-0.3,0c-0.2,0-0.4,0.2-0.4,0.4
		l0,0l0,25.5c0,0.2,0.2,0.4,0.4,0.4l0,0l0.3,0c0.2,0,0.4-0.2,0.4-0.4L147.4,131.4"/>
	<path vector-effect="non-scaling-stroke" class="st0" d="M353.4,141.5c0-0.4-0.3-0.7-0.6-0.7h0l0,0c-0.4,0-0.7,0.3-0.7,0.6
		l-0.1,42.3c0,0.4,0.3,0.7,0.6,0.7l0,0c0.4,0,0.7-0.3,0.7-0.6L353.4,141.5"/>
	<path vector-effect="non-scaling-stroke" class="st0" d="M147.4,168.9c0-0.1-0.1-0.3-0.3-0.3l0,0l-0.5,0c-0.1,0-0.3,0.1-0.3,0.3
		l0.1,25.4c0,0.1,0.1,0.3,0.3,0.3h0l0.5,0c0.1,0,0.3-0.1,0.3-0.3L147.4,168.9"/>
	<path vector-effect="non-scaling-stroke" class="st0" d="M250,444c20.6,0,41.2,0,61.8,0c6.9,0,11.3,0.5,15.9-1.3
		c8.1-3.1,12.2-9.8,12.2-19.9c-0.1-211,0-326.7,0.1-347.2c0-4.9-1.6-9.2-4.8-12.8c-3.5-4-8.1-6.2-13.6-6.6
		c-4.2-0.3-10.5-0.3-18.9,0.1c-1.9,0.1-2.8,0.9-2.8,2.5c0,5.1-1.9,8.6-5.7,10.3c-1.6,0.8-5.1,1.2-10.4,1.2c-11.7,0-22.9,0-33.8,0
		c-10.8,0-22.1,0-33.8,0c-5.3,0-8.8-0.4-10.4-1.2c-3.8-1.8-5.7-5.2-5.7-10.3c0-1.6-0.9-2.4-2.8-2.5c-8.4-0.4-14.7-0.4-18.9-0.1
		c-5.5,0.4-10.1,2.6-13.6,6.6c-3.2,3.6-4.8,7.9-4.8,12.9c0.1,20.5,0.2,136.3,0.1,347.3c0,10.1,4.1,16.8,12.2,19.9
		c4.6,1.8,8.9,1.3,15.9,1.3C208.8,444,229.4,444,250,444"/>
	<path vector-effect="non-scaling-stroke" class="st0" d="M275.6,60.6c0-2.1-1.7-3.8-3.8-3.8s-3.8,1.7-3.8,3.8s1.7,3.8,3.8,3.8
		S275.6,62.6,275.6,60.6"/>
	<path vector-effect="non-scaling-stroke" class="st0" d="M264.4,60.6c0-1.3-1.1-2.4-2.4-2.4h0h-23.8c-1.3,0-2.4,1.1-2.4,2.4v0.1
		c0,1.3,1.1,2.4,2.4,2.4H262c1.3,0,2.4-1.1,2.4-2.4C264.4,60.7,264.4,60.7,264.4,60.6L264.4,60.6"/>
	<path vector-effect="non-scaling-stroke" class="st0" d="M274.2,60.6c0-1.3-1.1-2.4-2.4-2.4c0,0,0,0,0,0c-1.3,0-2.4,1.1-2.4,2.4
		s1.1,2.4,2.4,2.4C273.1,62.9,274.2,61.9,274.2,60.6C274.2,60.6,274.2,60.6,274.2,60.6"/>
	<path vector-effect="non-scaling-stroke" class="st0" d="M262.9,60.6c0-0.5-0.4-1-1-1c0,0,0,0,0,0l-23.8,0c-0.5,0-1,0.4-1,1l0,0
		c0,0.5,0.4,1,1,1c0,0,0,0,0,0l23.8,0C262.4,61.6,262.9,61.1,262.9,60.6L262.9,60.6"/>
</g>
<g>
	<path class="st1" d="M350.5,159.4c-0.2,0-0.3-0.1-0.3-0.3c0-26.3,0-52.7,0-79.2c0-6.2-0.5-10.7-1.4-13.5
		c-1.9-5.7-5.2-10.5-10.1-14.3c-3.2-2.5-6.6-4.2-10.2-5.3c-2.2-0.6-5.9-0.9-11.1-0.9c-70.9,0.1-116.6,0.1-137.1-0.1
		c-10-0.1-18.1,3.7-24.1,11.4c-2.4,3.1-4.2,6.5-5.3,10.2c-0.7,2.5-1.1,6.2-1.1,11.2c0,31.7-0.1,58.2-0.1,79.6
		c0,38.4-0.1,121.6-0.1,249.8c0,1.7,0,5.9,0.1,12.6c0,5.6,0.5,9.8,1.4,12.5c3.3,10,11.8,18.4,22.1,20.4c1.8,0.4,6.3,0.5,13.4,0.5
		c41,0,82.1,0,123.1,0c9.8,0,16-0.3,18.4-0.9c6.3-1.6,11.6-5.2,15.9-10.8c4.2-5.5,6.3-11.9,6.3-19.1c-0.3-138.7-0.3-221.8-0.1-249.3
		c0-4.7,0.1-9.3,0.1-14c0-0.1,0.1-0.2,0.2-0.2h0c0.1,0,0.2,0.1,0.2,0.2c-0.1,6.1,0,12.1,0.2,18.2c0.2,6.8,0.3,12.9,0.3,18.1
		c0,142.8,0,216.7,0,221.8c0,4-0.1,6.8-0.2,8.6c-1.1,10.5-6,18.5-14.9,24.1c-5,3.2-10.7,4.8-17.1,4.8c-44.3,0-87.8,0-130.5,0
		c-8.8,0-14.7-0.5-17.7-1.3c-5.9-1.7-11-5.1-15.4-10.3c-2.9-3.4-4.9-7.2-6-11.5c-0.7-2.5-1-6.7-1-12.6c0-10.8,0-85.2,0.1-223.3
		c0-0.8,0-1.3,0-1.5c-0.1-12.7-0.1-25.7-0.1-39c0.1-11.7,0.1-25,0.1-39.7c0-0.1,0-0.6,0-1.5c0-16.8,0-27.8,0-33.3
		c0-7.7,0.5-12.9,1.5-15.8c2-6,5.7-11,11-15c5.2-4,11.3-6,18.1-6.2c8.1-0.2,16.1-0.3,23.8-0.3c42.2,0.1,78,0.1,107.3,0
		c2.6,0,6.1,0.1,10.7,0.3c5.5,0.3,10.4,1.7,14.8,4.2c7,4.1,11.8,10,14.2,17.7c1,3.1,1.5,8.5,1.5,16.1c0,31.7,0,50.5-0.1,56.4
		c0,1.2,0,2.1,0,2.8c0,6-0.2,12-0.4,17.8c0,0,0,0,0,0H350.5z"/>
	<path class="st1" d="M151,424.5l0-348.9c0-15.7,12.8-28.5,28.5-28.5l0,0l141,0c15.7,0,28.5,12.8,28.5,28.5c0,0,0,0,0,0l0,348.9
		c0,15.7-12.8,28.5-28.5,28.5l0,0l-141,0C163.8,452.9,151,440.2,151,424.5z M250,444c20.6,0,41.2,0,61.8,0c6.9,0,11.3,0.5,15.9-1.3
		c8.1-3.1,12.2-9.8,12.2-19.9c-0.1-211,0-326.7,0.1-347.2c0-4.9-1.6-9.2-4.8-12.8c-3.5-4-8.1-6.2-13.6-6.6
		c-4.2-0.3-10.5-0.3-18.9,0.1c-1.9,0.1-2.8,0.9-2.8,2.5c0,5.1-1.9,8.6-5.7,10.3c-1.6,0.8-5.1,1.2-10.4,1.2c-11.7,0-22.9,0-33.8,0
		c-10.8,0-22.1,0-33.8,0c-5.3,0-8.8-0.4-10.4-1.2c-3.8-1.8-5.7-5.2-5.7-10.3c0-1.6-0.9-2.4-2.8-2.5c-8.4-0.4-14.7-0.4-18.9-0.1
		c-5.5,0.4-10.1,2.6-13.6,6.6c-3.2,3.6-4.8,7.9-4.8,12.9c0.1,20.5,0.2,136.3,0.1,347.3c0,10.1,4.1,16.8,12.2,19.9
		c4.6,1.8,8.9,1.3,15.9,1.3C208.8,444,229.4,444,250,444z M275.6,60.6c0-2.1-1.7-3.8-3.8-3.8s-3.8,1.7-3.8,3.8s1.7,3.8,3.8,3.8
		S275.6,62.6,275.6,60.6z M264.4,60.6c0-1.3-1.1-2.4-2.4-2.4h0h-23.8c-1.3,0-2.4,1.1-2.4,2.4v0.1c0,1.3,1.1,2.4,2.4,2.4H262
		c1.3,0,2.4-1.1,2.4-2.4C264.4,60.7,264.4,60.7,264.4,60.6L264.4,60.6z"/>
	<circle class="st1" cx="271.8" cy="60.6" r="2.4"/>
	<path class="st1" d="M238.1,59.5l23.8,0c0.5,0,1,0.4,1,1l0,0c0,0.5-0.4,1-1,1l-23.8,0c-0.5,0-1-0.4-1-1l0,0
		C237.1,60,237.6,59.5,238.1,59.5z"/>
	<path class="st1" d="M146.7,100.8l0.2,0c0.2,0,0.4,0.2,0.4,0.4l0.3,12.3c0,0.2-0.2,0.4-0.4,0.4l-0.2,0c-0.2,0-0.4-0.2-0.4-0.4
		l-0.3-12.3C146.4,101,146.5,100.8,146.7,100.8z"/>
	<path class="st1" d="M146.7,131l0.3,0c0.2,0,0.4,0.2,0.4,0.4l0,25.5c0,0.2-0.2,0.4-0.4,0.4l-0.3,0c-0.2,0-0.4-0.2-0.4-0.4l0-25.5
		C146.3,131.2,146.5,131,146.7,131z"/>
	<path class="st1" d="M352.7,140.8L352.7,140.8c0.4,0,0.7,0.3,0.7,0.7l-0.1,42.3c0,0.4-0.3,0.6-0.7,0.6l0,0c-0.4,0-0.6-0.3-0.6-0.7
		l0.1-42.3C352.1,141.1,352.4,140.8,352.7,140.8z"/>
	<path class="st1" d="M146.6,168.7l0.5,0c0.1,0,0.3,0.1,0.3,0.3l0.1,25.4c0,0.1-0.1,0.3-0.3,0.3l-0.5,0c-0.1,0-0.3-0.1-0.3-0.3
		l-0.1-25.4C146.3,168.8,146.5,168.7,146.6,168.7z"/>
</g>
<g>
	<path class="st2" d="M146.8,99.1c0.2,0,0.3-0.2,0.3-0.4c0.1-12.1,0.2-20.1,0.2-24c0-5,1.4-9.9,4.2-14.8
		c6.4-11.2,16.2-16.8,29.5-16.8c41.1,0,87.1,0,138,0c5.9,0,11,1.1,15.1,3.2C343.3,51,349,58.3,351.4,68c0.8,3.3,1.2,7.3,1.2,11.9
		c-0.1,35.9-0.1,55.3,0,58.2c0,0.4,0.2,0.7,0.5,0.9c0.7,0.4,1.1,0.9,1.3,1.4c0.1,0.3,0.2,0.6,0.2,0.8c0.2,10,0.2,24.5-0.1,43.6
		c0,0.4-0.2,0.7-0.5,0.9l-0.8,0.5c-0.3,0.2-0.5,0.5-0.5,0.9c-0.1,3.4-0.2,7.4-0.2,11.9c-0.1,67.2-0.1,139.4,0,216.5
		c0,8.3-0.4,13.9-1.2,16.9c-1.5,5.7-4.5,10.7-9,15c-6.3,6.1-14,9.2-23.2,9.2c-42.9,0-86.1,0-129.8,0c-9,0-15.2-0.5-18.6-1.4
		c-11.4-3.2-19-11.2-22.8-23.9c-0.7-2.3-1-5.8-0.9-10.5c0-3.7,0.1-5.6,0.1-5.7c0-72.5,0-144.9,0-217.4c0-0.3-0.1-0.5-0.3-0.7
		c-0.8-0.7-1.2-1.4-1.3-1.9c-0.4-6-0.5-14.5-0.3-25.6c0-0.8,0.2-1.4,0.5-1.7c0.4-0.5,0.8-0.9,1.1-1.2c0.2-0.2,0.3-0.4,0.3-0.7v-6
		c0-0.1,0-0.1,0-0.2c-0.2-0.6-0.6-1-1.2-1.4c-0.3-0.2-0.5-0.5-0.5-0.8c-0.2-9.8-0.3-18.3-0.2-25.6c0-1.5,0.4-2.1,1.5-2.8
		c0.3-0.2,0.4-0.5,0.4-0.9v-11.1c0-0.3-0.1-0.6-0.3-0.9l-1-1.1c-0.1-0.1-0.1-0.3-0.2-0.5c-0.4-5.4-0.5-10-0.3-14
		C145.4,99.8,145.9,99.3,146.8,99.1z M350.5,159.4h0.3c0,0,0,0,0,0c0.2-5.9,0.4-11.8,0.4-17.8c0-0.6,0-1.5,0-2.8
		c0.1-5.9,0.1-24.6,0.1-56.4c0-7.6-0.5-13-1.5-16.1c-2.4-7.6-7.2-13.5-14.2-17.7c-4.4-2.6-9.3-4-14.8-4.2c-4.5-0.2-8.1-0.3-10.7-0.3
		c-29.3,0.1-65.1,0.1-107.3,0c-7.7,0-15.7,0.1-23.8,0.3c-6.8,0.2-12.8,2.3-18.1,6.2c-5.3,4-9,9-11,15c-1,2.9-1.5,8.2-1.5,15.8
		c0,5.4,0,16.5,0,33.3c0,0.9,0,1.4,0,1.5c0,14.8,0,28-0.1,39.7c-0.1,13.3-0.1,26.3,0.1,39c0,0.2,0,0.7,0,1.5
		c0,138.1-0.1,212.5-0.1,223.3c0,5.9,0.3,10.1,1,12.6c1.1,4.3,3.1,8.1,6,11.5c4.3,5.1,9.4,8.6,15.4,10.3c3,0.9,8.9,1.3,17.7,1.3
		c42.7,0.1,86.2,0.1,130.5,0c6.4,0,12.1-1.6,17.1-4.8c8.8-5.6,13.8-13.6,14.9-24.1c0.2-1.7,0.3-4.6,0.2-8.6c0-5.1,0-79.1,0-221.8
		c0-5.3-0.1-11.3-0.3-18.1c-0.2-6.1-0.3-12.1-0.2-18.2c0-0.1-0.1-0.2-0.2-0.2h0c-0.1,0-0.2,0.1-0.2,0.2c0,4.7-0.1,9.3-0.1,14
		c-0.2,27.5-0.2,110.6,0.1,249.3c0,7.2-2.1,13.6-6.3,19.1c-4.3,5.6-9.6,9.2-15.9,10.8c-2.4,0.6-8.6,0.9-18.4,0.9
		c-41,0-82.1,0-123.1,0c-7.1,0-11.6-0.2-13.4-0.5c-10.3-2.1-18.9-10.5-22.1-20.4c-0.9-2.7-1.3-6.9-1.4-12.5c0-6.7-0.1-10.9-0.1-12.6
		c0.1-128.1,0.1-211.4,0.1-249.8c0-21.3,0-47.9,0.1-79.6c0-5,0.4-8.7,1.1-11.2c1.1-3.7,2.8-7.1,5.3-10.2c6-7.7,14.1-11.5,24.1-11.4
		c20.6,0.2,66.3,0.2,137.1,0.1c5.2,0,8.9,0.3,11.1,0.9c3.6,1,7,2.8,10.2,5.3c4.8,3.8,8.2,8.5,10.1,14.3c0.9,2.8,1.4,7.4,1.4,13.5
		c0,26.5,0,52.9,0,79.2C350.2,159.3,350.3,159.4,350.5,159.4z M151,424.5c0,15.7,12.8,28.5,28.5,28.5l141,0
		c15.7,0,28.5-12.8,28.5-28.5l0,0l0-348.9c0-15.7-12.8-28.5-28.5-28.5c0,0,0,0,0,0l-141,0C163.8,47,151,59.8,151,75.5l0,0L151,424.5
		z M147.3,101.2c0-0.2-0.2-0.4-0.4-0.4l0,0l-0.2,0c-0.2,0-0.4,0.2-0.4,0.4l0.3,12.3c0,0.2,0.2,0.4,0.4,0.4l0.2,0
		c0.2,0,0.4-0.2,0.4-0.4L147.3,101.2z M147.4,131.4c0-0.2-0.2-0.4-0.4-0.4l0,0l-0.3,0c-0.2,0-0.4,0.2-0.4,0.4l0,0l0,25.5
		c0,0.2,0.2,0.4,0.4,0.4l0,0l0.3,0c0.2,0,0.4-0.2,0.4-0.4L147.4,131.4z M353.4,141.5c0-0.4-0.3-0.7-0.6-0.7h0l0,0
		c-0.4,0-0.7,0.3-0.7,0.6l-0.1,42.3c0,0.4,0.3,0.7,0.6,0.7l0,0c0.4,0,0.7-0.3,0.7-0.6L353.4,141.5z M147.4,168.9
		c0-0.1-0.1-0.3-0.3-0.3l0,0l-0.5,0c-0.1,0-0.3,0.1-0.3,0.3l0.1,25.4c0,0.1,0.1,0.3,0.3,0.3h0l0.5,0c0.1,0,0.3-0.1,0.3-0.3
		L147.4,168.9z"/>
	<path class="st2" d="M249.9,70.1c10.8,0,22.1,0,33.8,0c5.3,0,8.8-0.4,10.4-1.2c3.8-1.8,5.7-5.2,5.7-10.3c0-1.6,0.9-2.4,2.8-2.5
		c8.4-0.4,14.7-0.4,18.9-0.1c5.5,0.4,10.1,2.6,13.6,6.6c3.2,3.6,4.8,7.9,4.8,12.8c-0.1,20.5-0.2,136.3-0.1,347.2
		c0,10.1-4.1,16.8-12.2,19.9c-4.6,1.8-8.9,1.3-15.9,1.3c-20.6,0-41.2,0-61.8,0s-41.2,0-61.8,0c-6.9,0-11.3,0.5-15.9-1.3
		c-8.1-3.1-12.2-9.8-12.2-19.9c0.1-211,0-326.7-0.1-347.3c0-4.9,1.6-9.2,4.8-12.9c3.5-4,8.1-6.2,13.6-6.6c4.2-0.3,10.5-0.3,18.9,0.1
		c1.9,0.1,2.8,0.9,2.8,2.5c0,5.1,1.9,8.6,5.7,10.3c1.6,0.8,5.1,1.2,10.4,1.2C227.9,70.1,239.1,70.1,249.9,70.1z M249.9,442.7
		c16.5,0,39.4,0,68.8,0c2,0,3.7-0.1,4.9-0.3c5.8-1,11.1-4.9,13.3-10c0.9-2.2,1.4-6,1.4-11.4c0-72.5,0-186.2,0-340.9
		c0-6-0.4-10-1.2-11.9c-1.8-4.2-4.8-7.3-9.1-9.2c-2.5-1.1-6-1.7-10.4-1.6c-2.9,0-8,0-15.2,0c-0.9,0-1.7,0.7-1.7,1.7c0,0,0,0.1,0,0.1
		c0.3,7.3-4.9,12.3-12.1,12.3c-7.9,0-20.8,0-38.8,0c-18,0-30.9,0-38.8-0.1c-7.2,0-12.4-5.1-12.1-12.3c0-0.9-0.7-1.7-1.6-1.7
		c0,0-0.1,0-0.1,0c-7.2,0-12.3,0-15.2,0c-4.4,0-7.9,0.5-10.4,1.6c-4.3,1.9-7.3,5-9,9.2c-0.8,2-1.2,5.9-1.2,11.9
		c0,154.7-0.1,268.3-0.1,340.9c0,5.4,0.5,9.2,1.4,11.4c2.2,5.1,7.5,9.1,13.3,10c1.2,0.2,2.9,0.3,4.9,0.3
		C210.5,442.7,233.5,442.7,249.9,442.7z"/>
	<path class="st2" d="M275.6,60.6c0,2.1-1.7,3.8-3.8,3.8s-3.8-1.7-3.8-3.8s1.7-3.8,3.8-3.8S275.6,58.5,275.6,60.6z M274.2,60.6
		c0-1.3-1.1-2.4-2.4-2.4c0,0,0,0,0,0c-1.3,0-2.4,1.1-2.4,2.4s1.1,2.4,2.4,2.4C273.1,62.9,274.2,61.9,274.2,60.6
		C274.2,60.6,274.2,60.6,274.2,60.6z"/>
	<path class="st2" d="M264.4,60.7c0,1.3-1.1,2.4-2.4,2.4h0h-23.8c-1.3,0-2.4-1.1-2.4-2.4v-0.1c0-1.3,1.1-2.4,2.4-2.4H262
		c1.3,0,2.4,1.1,2.4,2.4C264.4,60.6,264.4,60.6,264.4,60.7L264.4,60.7z M262.9,60.6c0-0.5-0.4-1-1-1c0,0,0,0,0,0l-23.8,0
		c-0.5,0-1,0.4-1,1l0,0c0,0.5,0.4,1,1,1c0,0,0,0,0,0l23.8,0C262.4,61.6,262.9,61.1,262.9,60.6L262.9,60.6z"/>
</g>
</svg>
